<?xml version="1.0" encoding="UTF-8"?>
<svg id="_图层_2" data-name="图层 2" xmlns="http://www.w3.org/2000/svg" viewBox="0 0 266.91 141.73">
  <defs>
    <style>
      .cls-1 {
        stroke-linecap: round;
        stroke-linejoin: round;
        stroke-width: .5px;
      }

      .cls-1, .cls-2 {
        fill: none;
        stroke: #000;
      }

      .cls-2 {
        stroke-linecap: square;
        stroke-miterlimit: 10;
        stroke-width: .68px;
      }
    </style>
  </defs>
  <g id="_图层_1-2" data-name="图层 1">
    <g>
      <g>
        <path d="m161.72,37.4l-1.36,4.6-.15.62c-.02.06-.02.11-.02.15,0,.07.02.14.07.19.04.04.08.06.14.06.06,0,.14-.04.24-.11.18-.13.42-.4.73-.81l.24.16c-.32.47-.65.83-.99,1.08s-.65.37-.94.37c-.2,0-.35-.05-.45-.15-.1-.1-.15-.24-.15-.42,0-.22.05-.51.15-.88l.15-.51c-.61.77-1.17,1.31-1.68,1.62-.37.22-.73.33-1.08.33s-.63-.14-.88-.41c-.25-.27-.37-.65-.37-1.13,0-.72.22-1.48.67-2.28.45-.8,1.01-1.44,1.69-1.92.54-.38,1.04-.57,1.51-.57.29,0,.52.07.71.22.19.15.33.38.43.72l.25-.77,1.11-.16Zm-2.48.35c-.3,0-.62.14-.95.41-.47.38-.9.95-1.27,1.71-.37.75-.55,1.44-.55,2.05,0,.31.08.55.24.73s.34.27.54.27c.51,0,1.06-.36,1.66-1.09.8-.97,1.19-1.96,1.19-2.98,0-.38-.08-.66-.23-.83-.15-.17-.36-.26-.63-.26Z"/>
        <path d="m159.12,64.17l-1.33,4.79c.43-.46.81-.78,1.14-.95.32-.17.66-.26,1.01-.26.5,0,.9.17,1.22.51.32.34.47.79.47,1.37,0,.74-.21,1.49-.62,2.22-.42.74-.94,1.31-1.57,1.72-.63.41-1.25.62-1.86.62-.68,0-1.38-.26-2.1-.78l2.06-7.26c.16-.56.24-.89.24-.98,0-.12-.04-.21-.11-.27-.1-.08-.26-.12-.46-.12-.1,0-.24.02-.43.05v-.26l2.35-.39Zm-2.62,9.32c.45.25.85.38,1.19.38.4,0,.81-.15,1.24-.45.43-.3.8-.8,1.11-1.51.31-.71.47-1.42.47-2.14,0-.43-.1-.76-.31-1-.21-.24-.45-.36-.73-.36-.42,0-.83.17-1.23.52-.4.34-.69.82-.86,1.44l-.88,3.12Z"/>
        <g>
          <g>
            <path d="m183.29,23.13l-.53,1.84h1.07l-.12.43h-1.06l-1.17,4c-.13.43-.19.71-.19.83,0,.08.02.14.05.18.04.04.08.06.13.06.11,0,.26-.08.45-.24.11-.09.35-.37.73-.83l.22.17c-.42.61-.81,1.03-1.19,1.28-.25.17-.51.26-.77.26-.2,0-.36-.06-.49-.19-.13-.12-.19-.28-.19-.48,0-.24.07-.62.22-1.12l1.14-3.93h-1.03l.07-.26c.5-.14.92-.34,1.25-.61.33-.27.7-.74,1.11-1.4h.3Z"/>
            <path d="m190.13,24.81l-1.33,4.6-.15.62c-.01.06-.02.11-.02.15,0,.07.02.14.07.19.04.04.08.06.14.06.06,0,.14-.04.23-.11.18-.13.41-.4.71-.81l.23.16c-.31.47-.64.83-.97,1.08-.33.25-.64.37-.92.37-.2,0-.34-.05-.44-.15-.1-.1-.15-.24-.15-.42,0-.22.05-.51.15-.88l.14-.51c-.6.77-1.14,1.31-1.64,1.62-.36.22-.71.33-1.06.33s-.62-.14-.86-.41c-.24-.27-.36-.65-.36-1.13,0-.72.22-1.48.65-2.28.43-.8.99-1.44,1.65-1.92.52-.38,1.02-.57,1.48-.57.28,0,.51.07.69.22.18.15.32.38.42.72l.24-.77,1.08-.16Zm-2.43.35c-.29,0-.6.14-.93.41-.46.38-.88.95-1.24,1.71-.36.75-.54,1.44-.54,2.05,0,.31.08.55.23.73s.33.27.53.27c.5,0,1.03-.36,1.62-1.09.78-.97,1.16-1.96,1.16-2.98,0-.38-.07-.66-.22-.83-.15-.17-.35-.26-.61-.26Z"/>
            <path d="m197.83,25.23l-.2.71h-1.14c.09.24.13.47.13.69,0,.6-.25,1.13-.76,1.59-.51.47-1.22.72-2.11.77-.48.14-.84.32-1.08.52-.09.07-.14.15-.14.22,0,.09.04.17.12.25.08.08.29.15.62.23l1.32.31c.73.17,1.21.38,1.45.61.23.24.35.51.35.83,0,.37-.14.71-.41,1.02-.28.31-.68.55-1.21.72s-1.11.26-1.75.26c-.56,0-1.08-.07-1.54-.2-.46-.13-.79-.31-1-.54-.2-.23-.3-.46-.3-.7,0-.19.06-.4.19-.61.13-.21.29-.38.49-.52.12-.09.47-.29,1.04-.61-.21-.16-.31-.34-.31-.54,0-.18.09-.37.28-.58.18-.2.57-.43,1.17-.67-.5-.09-.9-.3-1.19-.62-.29-.32-.44-.68-.44-1.07,0-.64.28-1.22.85-1.72.57-.51,1.32-.76,2.26-.76.34,0,.62.03.84.1s.43.17.63.32h1.84Zm-5.63,5.72c-.37.17-.65.38-.83.64-.19.26-.28.52-.28.77,0,.3.14.54.41.74.39.28.96.42,1.72.42.65,0,1.2-.11,1.67-.33.46-.22.69-.5.69-.85,0-.18-.09-.34-.26-.5s-.5-.29-.99-.39c-.27-.05-.97-.22-2.12-.51Zm3.26-4.65c0-.36-.1-.65-.3-.85s-.47-.31-.79-.31c-.51,0-.94.26-1.27.77s-.5,1.05-.5,1.6c0,.35.11.63.32.85.21.22.47.33.78.33.24,0,.47-.07.7-.2s.41-.31.57-.54c.15-.23.28-.52.37-.88.09-.36.14-.61.14-.77Z"/>
            <path d="m197.63,31.16l.76-3.41h.23c-.03.33-.05.6-.05.82,0,.62.2,1.12.6,1.51.4.39.92.58,1.56.58.59,0,1.05-.18,1.36-.55.31-.36.46-.78.46-1.26,0-.31-.07-.59-.21-.84-.21-.38-.78-1.04-1.71-1.98-.45-.45-.74-.79-.87-1.01-.21-.37-.31-.75-.31-1.15,0-.64.24-1.19.72-1.65.48-.46,1.1-.69,1.85-.69.25,0,.5.02.72.07.14.03.4.12.77.27.26.1.41.16.44.17.06.01.13.02.21.02.13,0,.25-.03.34-.1.1-.07.21-.21.33-.43h.26l-.71,3.05h-.23c.02-.27.03-.49.03-.66,0-.55-.18-.99-.54-1.34s-.84-.52-1.44-.52c-.47,0-.86.14-1.15.41-.3.28-.44.59-.44.96,0,.32.09.62.28.91.19.29.62.76,1.3,1.4.68.65,1.12,1.16,1.32,1.52s.3.75.3,1.16c0,.46-.12.92-.37,1.35-.25.44-.6.77-1.07,1.01-.46.24-.97.36-1.52.36-.27,0-.53-.02-.76-.07s-.61-.17-1.13-.37c-.18-.07-.33-.1-.44-.1-.27,0-.48.18-.63.54h-.26Z"/>
            <path d="m207.72,24.81l-1.35,4.75c-.09.32-.14.51-.14.58,0,.07.02.13.07.18.04.04.09.07.15.07.07,0,.15-.04.25-.11.26-.2.52-.49.78-.87l.24.16c-.31.47-.67.87-1.09,1.19-.31.24-.6.36-.89.36-.19,0-.34-.06-.46-.17-.12-.11-.18-.25-.18-.42s.06-.45.17-.83l.89-3.04c.15-.5.22-.81.22-.94,0-.1-.04-.18-.11-.24s-.17-.09-.29-.09c-.1,0-.31.02-.62.07v-.26l2.35-.38Zm-.09-2.69c.19,0,.35.07.48.2.13.13.2.29.2.48s-.07.34-.2.48c-.13.13-.29.2-.48.2s-.35-.07-.48-.2-.2-.29-.2-.48.07-.35.2-.48c.13-.13.29-.2.48-.2Z"/>
            <path d="m209.6,24.97h4.33v.17l-4.71,4.88h2c.47,0,.77-.02.9-.05.13-.04.24-.11.35-.23.11-.12.23-.33.36-.64h.25l-.59,1.84h-4.44v-.2l4.71-4.88h-1.96c-.41,0-.66.01-.75.03-.13.03-.25.1-.38.21-.12.12-.25.31-.38.57h-.26l.58-1.72Z"/>
            <path d="m215.54,28.39c-.03.23-.05.41-.05.56,0,.4.14.75.43,1.03.29.28.63.42,1.04.42.33,0,.64-.07.94-.2.3-.13.75-.43,1.35-.89l.14.2c-1.08,1.06-2.1,1.59-3.08,1.59-.66,0-1.16-.21-1.5-.62s-.5-.88-.5-1.38c0-.67.21-1.36.63-2.07.42-.71.94-1.25,1.57-1.64.63-.39,1.28-.59,1.95-.59.48,0,.84.1,1.07.29.23.19.35.43.35.69,0,.38-.15.73-.45,1.08-.4.45-.98.81-1.74,1.09-.51.19-1.22.33-2.15.43Zm.05-.33c.67-.08,1.22-.21,1.64-.39.56-.25.98-.55,1.26-.89.28-.35.42-.67.42-.99,0-.19-.06-.34-.18-.46-.12-.12-.29-.18-.51-.18-.46,0-.96.25-1.47.74-.52.49-.9,1.22-1.15,2.17Z"/>
            <path d="m240.32,24.81l-1.33,4.6-.15.62c-.01.06-.02.11-.02.15,0,.07.02.14.07.19.04.04.08.06.14.06.06,0,.14-.04.23-.11.18-.13.41-.4.71-.81l.23.16c-.31.47-.64.83-.97,1.08-.33.25-.64.37-.92.37-.2,0-.34-.05-.44-.15-.1-.1-.15-.24-.15-.42,0-.22.05-.51.15-.88l.14-.51c-.59.77-1.14,1.31-1.64,1.62-.36.22-.71.33-1.06.33s-.62-.14-.86-.41c-.24-.27-.36-.65-.36-1.13,0-.72.22-1.48.65-2.28.43-.8.98-1.44,1.65-1.92.52-.38,1.01-.57,1.48-.57.28,0,.51.07.69.22.18.15.32.38.42.72l.25-.77,1.08-.16Zm-2.43.35c-.29,0-.6.14-.93.41-.46.38-.88.95-1.24,1.71-.36.75-.54,1.44-.54,2.05,0,.31.08.55.23.73s.33.27.53.27c.49,0,1.03-.36,1.61-1.09.78-.97,1.17-1.96,1.17-2.98,0-.38-.08-.66-.22-.83-.15-.17-.35-.26-.61-.26Z"/>
          </g>
          <path d="m223.34,25.8h7.15v.66h-7.15v-.66Zm0,2.53h7.15v.67h-7.15v-.67Z"/>
        </g>
        <g>
          <g>
            <path d="m179.76,68.65l.77-3.41h.23c-.03.33-.05.6-.05.82,0,.62.2,1.12.6,1.51.4.39.92.58,1.57.58.6,0,1.05-.18,1.37-.55.31-.36.47-.78.47-1.26,0-.31-.07-.59-.21-.84-.21-.38-.79-1.04-1.72-1.98-.45-.45-.74-.79-.87-1.01-.21-.37-.32-.75-.32-1.15,0-.64.24-1.19.73-1.65s1.11-.69,1.86-.69c.26,0,.5.02.73.07.14.03.4.12.77.27.26.1.41.16.44.17.06.01.13.02.21.02.13,0,.25-.03.34-.1s.21-.21.34-.43h.26l-.71,3.05h-.23c.02-.27.03-.49.03-.66,0-.55-.18-.99-.55-1.34-.37-.35-.85-.52-1.45-.52-.48,0-.86.14-1.16.41-.3.28-.45.59-.45.96,0,.32.09.62.28.91.19.29.63.76,1.31,1.4.68.65,1.13,1.16,1.33,1.52s.3.75.3,1.16c0,.46-.12.92-.37,1.35s-.61.77-1.07,1.01c-.47.24-.98.36-1.53.36-.27,0-.53-.02-.77-.07-.24-.05-.62-.17-1.14-.37-.18-.07-.33-.1-.45-.1-.27,0-.48.18-.63.54h-.26Z"/>
            <path d="m189.79,62.31l-.47,1.56c.5-.58.94-.98,1.33-1.21s.79-.35,1.2-.35.75.16,1.04.48.43.73.43,1.24c0,.99-.41,2.01-1.23,3.04-.82,1.03-1.77,1.54-2.86,1.54-.23,0-.43-.03-.61-.08-.18-.05-.37-.14-.59-.26l-.5,1.75c-.1.34-.15.57-.15.67s.03.18.08.25.14.12.26.16c.12.04.35.06.71.06l-.06.25h-3.23l.07-.25c.42-.02.71-.09.86-.22.15-.13.3-.48.47-1.05l1.73-5.94c.11-.38.16-.61.16-.7,0-.12-.04-.22-.11-.28-.07-.07-.18-.1-.33-.1-.13,0-.32.02-.55.05v-.26l2.35-.35Zm-1.6,5.43c.28.33.67.5,1.14.5.24,0,.48-.07.73-.2.25-.13.49-.33.72-.58s.45-.55.63-.89c.19-.34.35-.73.5-1.19.15-.46.22-.91.22-1.36,0-.36-.08-.64-.25-.83-.17-.19-.36-.29-.59-.29-.49,0-.98.28-1.46.84-.48.56-.83,1.22-1.06,1.97l-.6,2.03Z"/>
            <path d="m200.29,62.31l-1.34,4.6-.15.62c-.01.06-.02.11-.02.15,0,.07.02.14.07.19.04.04.08.06.14.06.06,0,.14-.04.23-.11.18-.13.42-.4.71-.81l.23.16c-.32.47-.64.83-.97,1.08s-.64.37-.93.37c-.2,0-.34-.05-.44-.15-.1-.1-.15-.24-.15-.42,0-.22.05-.51.15-.88l.14-.51c-.6.77-1.15,1.31-1.65,1.62-.36.22-.71.33-1.06.33s-.62-.14-.86-.41c-.24-.27-.36-.65-.36-1.13,0-.72.22-1.48.66-2.28.44-.8.99-1.44,1.66-1.92.53-.38,1.02-.57,1.49-.57.28,0,.51.07.7.22.19.15.33.38.42.72l.25-.77,1.09-.16Zm-2.44.35c-.29,0-.6.14-.93.41-.47.38-.88.95-1.24,1.71-.36.75-.54,1.44-.54,2.05,0,.31.08.55.23.73s.33.27.54.27c.5,0,1.04-.36,1.62-1.09.78-.97,1.17-1.96,1.17-2.98,0-.38-.08-.66-.23-.83-.15-.17-.36-.26-.62-.26Z"/>
            <path d="m206.15,66.97c-.48.57-.96.98-1.44,1.24-.48.26-1,.4-1.54.4-.65,0-1.16-.18-1.52-.54-.36-.36-.54-.85-.54-1.46,0-.69.2-1.37.59-2.04.39-.67.92-1.21,1.58-1.63.66-.42,1.31-.63,1.94-.63.5,0,.87.1,1.12.31s.37.46.37.76c0,.28-.09.52-.26.72-.13.15-.29.23-.47.23-.14,0-.26-.04-.35-.14-.09-.09-.14-.2-.14-.34,0-.09.02-.17.05-.24s.1-.16.21-.26c.11-.1.17-.18.2-.22.02-.04.03-.09.03-.14,0-.1-.04-.17-.13-.24-.13-.09-.32-.14-.56-.14-.45,0-.89.16-1.33.47-.44.31-.81.76-1.12,1.33-.38.7-.56,1.39-.56,2.09,0,.46.13.83.4,1.09.26.27.63.4,1.08.4.35,0,.7-.09,1.05-.26.34-.17.73-.49,1.16-.95l.2.18Z"/>
            <path d="m208.55,65.89c-.03.23-.05.41-.05.56,0,.4.14.75.43,1.03.29.28.64.42,1.05.42.33,0,.65-.07.95-.2.3-.13.75-.43,1.35-.89l.14.2c-1.08,1.06-2.12,1.59-3.1,1.59-.67,0-1.17-.21-1.51-.62-.34-.42-.51-.88-.51-1.38,0-.67.21-1.36.63-2.07.42-.71.95-1.25,1.58-1.64s1.29-.59,1.96-.59c.48,0,.84.1,1.08.29.23.19.35.43.35.69,0,.38-.15.73-.45,1.08-.4.45-.98.81-1.75,1.09-.51.19-1.23.33-2.16.43Zm.05-.33c.68-.08,1.23-.21,1.65-.39.56-.25.98-.55,1.27-.89.28-.35.42-.67.42-.99,0-.19-.06-.34-.18-.46-.12-.12-.29-.18-.52-.18-.47,0-.96.25-1.48.74-.52.49-.91,1.22-1.16,2.17Z"/>
            <path d="m230.51,58.8l-1.35,4.69c.44-.45.82-.76,1.15-.93.33-.17.67-.25,1.03-.25.5,0,.91.17,1.23.5.32.33.48.78.48,1.34,0,.73-.21,1.45-.63,2.17-.42.72-.95,1.28-1.58,1.69-.63.4-1.26.6-1.88.6-.69,0-1.4-.26-2.13-.77l2.08-7.1c.16-.55.24-.87.24-.96,0-.12-.04-.21-.11-.26-.11-.08-.26-.12-.47-.12-.1,0-.24.02-.44.05v-.26l2.37-.38Zm-2.65,9.11c.46.25.86.37,1.21.37.4,0,.82-.15,1.25-.44.43-.29.81-.78,1.12-1.47.32-.69.48-1.39.48-2.1,0-.42-.1-.74-.31-.98-.21-.24-.45-.35-.74-.35-.42,0-.84.17-1.25.51-.41.34-.7.81-.87,1.41l-.89,3.05Z"/>
          </g>
          <path d="m216.37,63.3h7.2v.66h-7.2v-.66Zm0,2.53h7.2v.67h-7.2v-.67Z"/>
        </g>
        <g>
          <line class="cls-2" x1="257.79" y1="101.07" x2="266.57" y2="101.07"/>
          <path d="m262.63,86.22l-1.35,4.69c.44-.45.82-.76,1.15-.93.33-.17.67-.25,1.02-.25.5,0,.91.17,1.23.5.32.33.48.78.48,1.34,0,.73-.21,1.45-.63,2.17-.42.72-.95,1.28-1.58,1.68s-1.26.6-1.88.6c-.69,0-1.4-.25-2.12-.77l2.08-7.1c.16-.55.24-.87.24-.96,0-.12-.04-.21-.11-.26-.11-.08-.26-.12-.47-.12-.1,0-.24.02-.44.05v-.26l2.37-.38Zm-2.65,9.12c.46.25.86.37,1.21.37.4,0,.82-.15,1.25-.44s.81-.78,1.12-1.47c.32-.69.48-1.39.48-2.1,0-.42-.1-.74-.31-.98-.21-.24-.45-.35-.74-.35-.42,0-.84.17-1.25.51s-.7.81-.87,1.41l-.89,3.05Z"/>
          <g>
            <path d="m183.31,96.73l-.53,1.84h1.08l-.12.43h-1.07l-1.18,4c-.13.43-.19.71-.19.83,0,.08.02.14.05.18.04.04.08.06.13.06.11,0,.27-.08.45-.24.11-.09.35-.37.73-.83l.23.17c-.42.61-.82,1.03-1.19,1.28-.26.17-.51.26-.77.26-.2,0-.37-.06-.49-.19-.13-.12-.19-.28-.19-.48,0-.24.07-.62.22-1.12l1.14-3.93h-1.04l.07-.26c.5-.14.92-.34,1.25-.61.33-.27.71-.74,1.12-1.4h.3Z"/>
            <path d="m190.19,98.41l-1.34,4.6-.15.62c-.01.06-.02.11-.02.15,0,.07.02.14.07.19.04.04.08.06.14.06.06,0,.14-.04.23-.11.18-.13.42-.4.71-.81l.23.16c-.32.47-.64.83-.97,1.08-.33.25-.64.37-.93.37-.2,0-.34-.05-.44-.15-.1-.1-.15-.24-.15-.42,0-.22.05-.51.15-.88l.14-.51c-.6.77-1.15,1.31-1.65,1.62-.36.22-.71.33-1.06.33s-.62-.14-.86-.41c-.24-.27-.36-.65-.36-1.13,0-.72.22-1.48.65-2.28.44-.8.99-1.44,1.66-1.92.53-.38,1.02-.57,1.49-.57.28,0,.51.07.7.22.19.14.33.38.42.72l.25-.77,1.09-.16Zm-2.44.35c-.29,0-.6.14-.93.41-.47.38-.88.95-1.24,1.71-.36.75-.54,1.44-.54,2.05,0,.31.08.55.23.73s.33.27.53.27c.5,0,1.04-.36,1.62-1.09.78-.97,1.17-1.96,1.17-2.98,0-.38-.08-.66-.23-.83-.15-.17-.36-.26-.62-.26Z"/>
            <path d="m197.93,98.83l-.2.71h-1.14c.09.24.13.47.13.69,0,.6-.26,1.13-.77,1.59-.52.47-1.22.72-2.12.77-.48.14-.85.32-1.09.52-.09.07-.14.15-.14.22,0,.09.04.17.12.25.08.08.29.15.62.23l1.33.31c.74.17,1.22.38,1.46.61.23.24.35.51.35.83,0,.37-.14.71-.42,1.02-.28.31-.68.55-1.21.72s-1.12.26-1.76.26c-.57,0-1.08-.07-1.55-.2-.47-.13-.8-.31-1-.54-.2-.23-.3-.46-.3-.7,0-.19.07-.4.2-.61.13-.21.29-.38.49-.52.12-.09.47-.29,1.05-.61-.21-.16-.32-.34-.32-.54,0-.18.09-.37.28-.58.19-.2.58-.43,1.18-.67-.5-.09-.9-.3-1.2-.62s-.44-.68-.44-1.07c0-.64.29-1.22.85-1.72.57-.51,1.33-.76,2.27-.76.34,0,.62.03.84.1.22.07.43.17.64.32h1.85Zm-5.66,5.72c-.37.17-.65.38-.84.64-.19.26-.28.52-.28.77,0,.3.14.54.41.74.39.28.97.42,1.73.42.65,0,1.21-.11,1.68-.33.46-.22.7-.5.7-.85,0-.18-.09-.34-.26-.5-.17-.16-.5-.29-1-.39-.27-.05-.98-.22-2.13-.51Zm3.28-4.65c0-.36-.1-.65-.31-.85-.2-.21-.47-.31-.8-.31-.52,0-.94.26-1.28.77-.34.51-.5,1.05-.5,1.6,0,.35.11.63.32.85s.48.33.78.33c.24,0,.48-.07.7-.2.23-.13.42-.31.57-.54s.28-.52.37-.88c.09-.36.14-.61.14-.77Z"/>
            <path d="m197.74,104.76l.77-3.41h.23c-.03.33-.05.6-.05.82,0,.62.2,1.12.6,1.51.4.39.92.58,1.57.58.6,0,1.05-.18,1.36-.55.31-.36.47-.78.47-1.26,0-.31-.07-.59-.21-.84-.21-.38-.79-1.04-1.72-1.98-.45-.45-.74-.79-.87-1.01-.21-.37-.31-.75-.31-1.15,0-.64.24-1.19.73-1.65.48-.46,1.11-.69,1.86-.69.26,0,.5.03.73.08.14.03.4.12.77.27.26.1.41.16.44.17.06.01.13.02.21.02.13,0,.25-.03.34-.1.1-.07.21-.21.34-.43h.26l-.71,3.05h-.23c.02-.27.03-.49.03-.66,0-.55-.18-1-.55-1.34-.37-.35-.85-.52-1.45-.52-.48,0-.86.14-1.16.41-.3.28-.45.59-.45.96,0,.32.09.62.28.91s.63.75,1.31,1.4c.68.65,1.12,1.16,1.33,1.52.2.36.3.75.3,1.16,0,.47-.12.92-.37,1.35s-.61.77-1.07,1.01c-.47.24-.98.36-1.53.36-.27,0-.53-.02-.77-.07s-.62-.17-1.14-.37c-.18-.07-.33-.1-.45-.1-.27,0-.48.18-.63.54h-.26Z"/>
            <path d="m207.76,98.41l-.47,1.56c.5-.58.94-.98,1.33-1.21s.79-.35,1.2-.35.75.16,1.04.48c.29.32.43.73.43,1.25,0,1-.41,2.01-1.23,3.04-.82,1.03-1.77,1.54-2.86,1.54-.23,0-.43-.03-.61-.08s-.37-.14-.59-.26l-.5,1.75c-.1.34-.15.57-.15.67s.03.18.08.25.14.12.26.16c.12.04.35.06.71.06l-.06.25h-3.23l.07-.25c.42-.02.71-.09.86-.22.15-.13.3-.48.47-1.05l1.73-5.94c.1-.38.16-.61.16-.7,0-.12-.04-.22-.11-.29-.07-.07-.18-.1-.33-.1-.13,0-.32.02-.55.05v-.26l2.35-.35Zm-1.6,5.43c.28.33.66.5,1.14.5.24,0,.48-.07.73-.2.25-.13.49-.33.72-.58.23-.26.45-.55.63-.89.19-.34.35-.73.5-1.19s.22-.91.22-1.36c0-.36-.08-.64-.25-.83-.17-.19-.36-.29-.59-.29-.49,0-.98.28-1.46.84-.48.56-.83,1.22-1.06,1.97l-.6,2.03Z"/>
            <path d="m218.26,98.41l-1.34,4.6-.15.62c-.01.06-.02.11-.02.15,0,.07.02.14.07.19.04.04.08.06.14.06.06,0,.14-.04.23-.11.18-.13.42-.4.71-.81l.23.16c-.32.47-.64.83-.97,1.08s-.64.37-.92.37c-.2,0-.34-.05-.44-.15-.1-.1-.15-.24-.15-.42,0-.22.05-.51.15-.88l.14-.51c-.6.77-1.15,1.31-1.65,1.62-.36.22-.71.33-1.06.33s-.62-.14-.86-.41c-.24-.27-.36-.65-.36-1.13,0-.72.22-1.48.65-2.28s.99-1.44,1.66-1.92c.53-.38,1.02-.57,1.49-.57.28,0,.51.07.7.22.18.14.33.38.42.72l.25-.77,1.09-.16Zm-2.44.35c-.29,0-.6.14-.93.41-.47.38-.88.95-1.24,1.71-.36.75-.54,1.44-.54,2.05,0,.31.08.55.23.73s.33.27.54.27c.5,0,1.04-.36,1.62-1.09.78-.97,1.17-1.96,1.17-2.98,0-.38-.08-.66-.23-.83-.15-.17-.36-.26-.62-.26Z"/>
            <path d="m224.11,103.07c-.47.57-.95.98-1.44,1.24-.48.26-1,.4-1.54.4-.65,0-1.15-.18-1.52-.54-.36-.36-.54-.85-.54-1.46,0-.69.2-1.37.59-2.04.39-.67.92-1.21,1.58-1.63s1.31-.63,1.94-.63c.5,0,.87.1,1.12.31.25.21.37.46.37.76,0,.28-.09.52-.26.72-.13.15-.29.23-.47.23-.14,0-.26-.04-.35-.14-.09-.09-.14-.2-.14-.34,0-.09.02-.17.05-.24s.11-.16.21-.26c.11-.1.17-.18.2-.22s.03-.09.03-.14c0-.09-.04-.17-.13-.24-.13-.09-.32-.14-.56-.14-.45,0-.89.16-1.33.47-.44.31-.81.76-1.12,1.33-.38.7-.56,1.39-.56,2.09,0,.46.13.83.4,1.09.26.27.62.4,1.08.4.35,0,.7-.09,1.04-.26.35-.17.73-.49,1.16-.95l.2.18Z"/>
            <path d="m228.06,98.41l-1.36,4.75c-.09.32-.14.51-.14.58,0,.07.02.13.07.18s.09.07.15.07c.07,0,.15-.04.25-.11.26-.2.52-.49.79-.87l.24.16c-.31.47-.68.87-1.1,1.19-.31.24-.61.36-.89.36-.19,0-.34-.06-.46-.17-.12-.11-.18-.25-.18-.42s.06-.45.17-.83l.89-3.04c.15-.5.22-.81.22-.94,0-.1-.04-.18-.11-.24-.07-.06-.17-.09-.29-.09-.1,0-.31.03-.62.07v-.26l2.36-.38Zm-.09-2.69c.19,0,.35.07.49.2s.2.29.2.48-.07.34-.2.48c-.13.13-.3.2-.48.2s-.35-.07-.48-.2c-.13-.13-.2-.29-.2-.48s.07-.35.2-.48c.13-.13.29-.2.49-.2Z"/>
            <path d="m231.88,98.41l-.91,3.09c.85-1.26,1.51-2.09,1.96-2.49.45-.4.89-.6,1.31-.6.23,0,.42.07.57.22s.22.34.22.58c0,.27-.07.63-.2,1.08l-.84,2.86c-.1.33-.14.53-.14.6,0,.06.02.12.05.16.04.04.08.06.12.06.05,0,.12-.03.2-.09.24-.19.51-.48.79-.87l.21.13c-.42.6-.83,1.03-1.21,1.29-.26.18-.5.26-.71.26-.17,0-.3-.05-.4-.15-.1-.1-.15-.24-.15-.41,0-.22.08-.59.23-1.12l.79-2.73c.1-.34.15-.6.15-.79,0-.09-.03-.16-.09-.22-.06-.06-.13-.08-.22-.08-.13,0-.28.05-.46.16-.34.2-.69.54-1.06,1.01-.37.47-.75,1.07-1.16,1.79-.21.38-.39.81-.53,1.26l-.34,1.12h-1.03l1.25-4.25c.15-.51.22-.82.22-.92s-.04-.19-.12-.26c-.08-.07-.18-.11-.3-.11-.05,0-.15,0-.29.03l-.26.04-.04-.24,2.37-.42Z"/>
            <path d="m243.11,98.83l-.2.71h-1.14c.09.24.13.47.13.69,0,.6-.26,1.13-.77,1.59-.52.47-1.22.72-2.12.77-.48.14-.85.32-1.09.52-.09.07-.14.15-.14.22,0,.09.04.17.12.25.08.08.29.15.62.23l1.33.31c.74.17,1.22.38,1.46.61.23.24.35.51.35.83,0,.37-.14.71-.42,1.02-.28.31-.68.55-1.21.72s-1.12.26-1.76.26c-.57,0-1.08-.07-1.55-.2-.47-.13-.8-.31-1-.54-.2-.23-.3-.46-.3-.7,0-.19.07-.4.2-.61.13-.21.29-.38.49-.52.12-.09.47-.29,1.05-.61-.21-.16-.31-.34-.31-.54,0-.18.09-.37.28-.58.18-.2.58-.43,1.17-.67-.5-.09-.9-.3-1.2-.62s-.44-.68-.44-1.07c0-.64.28-1.22.85-1.72.57-.51,1.33-.76,2.27-.76.34,0,.62.03.84.1.22.07.43.17.64.32h1.85Zm-5.66,5.72c-.37.17-.65.38-.84.64-.19.26-.29.52-.29.77,0,.3.14.54.41.74.39.28.97.42,1.73.42.65,0,1.21-.11,1.67-.33.46-.22.7-.5.7-.85,0-.18-.09-.34-.26-.5-.17-.16-.5-.29-1-.39-.27-.05-.98-.22-2.13-.51Zm3.28-4.65c0-.36-.1-.65-.3-.85s-.47-.31-.8-.31c-.52,0-.94.26-1.28.77-.34.51-.5,1.05-.5,1.6,0,.35.11.63.32.85s.47.33.78.33c.24,0,.48-.07.7-.2.23-.13.42-.31.57-.54s.28-.52.37-.88c.09-.36.14-.61.14-.77Z"/>
          </g>
          <path d="m265.25,109.2l-1.34,4.6-.15.62c-.01.06-.02.11-.02.15,0,.07.02.14.07.19.04.04.08.06.14.06.06,0,.14-.04.23-.11.18-.13.42-.4.71-.81l.23.16c-.32.47-.64.83-.97,1.08-.33.25-.64.37-.93.37-.2,0-.34-.05-.44-.15-.1-.1-.15-.24-.15-.42,0-.22.05-.51.15-.88l.14-.51c-.6.77-1.15,1.31-1.65,1.62-.36.22-.72.33-1.06.33s-.62-.14-.86-.41c-.24-.27-.36-.65-.36-1.13,0-.72.22-1.48.65-2.28s.99-1.44,1.66-1.92c.53-.38,1.02-.57,1.49-.57.28,0,.51.07.7.22.18.14.33.38.42.72l.25-.77,1.09-.16Zm-2.44.35c-.29,0-.6.14-.93.41-.47.38-.88.95-1.24,1.71-.36.75-.54,1.44-.54,2.05,0,.31.08.55.23.73s.33.27.54.27c.5,0,1.04-.36,1.62-1.09.78-.97,1.17-1.96,1.17-2.98,0-.38-.08-.66-.23-.83s-.36-.26-.62-.26Z"/>
          <path d="m247.05,99.4h7.2v.66h-7.2v-.66Zm0,2.53h7.2v.67h-7.2v-.67Z"/>
        </g>
      </g>
      <g>
        <g>
          <rect y="127.07" width="14.66" height="14.66"/>
          <rect x="63.54" y="127.07" width="14.66" height="14.66"/>
          <rect y="127.07" width="14.66" height="14.66"/>
          <rect x="127.07" y="127.07" width="14.66" height="14.66"/>
          <rect x="63.54" y="127.07" width="14.66" height="14.66"/>
          <rect y="127.07" width="14.66" height="14.66"/>
          <rect y="63.54" width="14.66" height="14.66"/>
          <rect x="14.66" y="117.3" width="48.87" height="9.77"/>
          <rect x="14.66" y="78.2" width="48.87" height="9.77"/>
          <rect x="53.76" y="78.2" width="9.77" height="48.87"/>
          <rect x="14.66" y="78.2" width="9.77" height="48.87"/>
          <rect x="34.21" y="87.97" width="4.89" height="4.89"/>
          <rect x="43.99" y="87.97" width="4.89" height="4.89"/>
          <rect x="48.87" y="87.97" width="4.89" height="4.89"/>
          <rect x="29.32" y="92.86" width="4.89" height="4.89"/>
          <rect x="34.21" y="92.86" width="4.89" height="4.89"/>
          <rect x="43.99" y="92.86" width="4.89" height="4.89"/>
          <rect x="39.1" y="97.75" width="4.89" height="4.89"/>
          <rect x="34.21" y="102.63" width="4.89" height="4.89"/>
          <rect x="39.1" y="102.63" width="4.89" height="4.89"/>
          <rect x="43.99" y="102.63" width="4.89" height="4.89"/>
          <rect x="24.44" y="107.52" width="4.89" height="4.89"/>
          <rect x="29.32" y="107.52" width="4.89" height="4.89"/>
          <rect x="48.87" y="107.52" width="4.89" height="4.89"/>
          <rect x="24.44" y="112.41" width="4.89" height="4.89"/>
          <rect x="43.99" y="112.41" width="4.89" height="4.89"/>
          <rect y="127.07" width="14.66" height="14.66"/>
          <rect x="63.54" y="127.07" width="14.66" height="14.66"/>
          <rect x="63.54" y="63.54" width="14.66" height="14.66"/>
          <rect y="63.54" width="14.66" height="14.66"/>
          <rect x="78.2" y="117.3" width="48.87" height="9.77"/>
          <rect x="78.2" y="78.2" width="48.87" height="9.77"/>
          <rect x="117.3" y="78.2" width="9.77" height="48.87"/>
          <rect x="78.2" y="78.2" width="9.77" height="48.87"/>
          <rect x="97.75" y="87.97" width="4.89" height="4.89"/>
          <rect x="107.52" y="87.97" width="4.89" height="4.89"/>
          <rect x="92.86" y="92.86" width="4.89" height="4.89"/>
          <rect x="97.75" y="92.86" width="4.89" height="4.89"/>
          <rect x="102.63" y="92.86" width="4.89" height="4.89"/>
          <rect x="107.52" y="92.86" width="4.89" height="4.89"/>
          <rect x="112.41" y="92.86" width="4.89" height="4.89"/>
          <rect x="87.97" y="97.75" width="4.89" height="4.89"/>
          <rect x="92.86" y="102.63" width="4.89" height="4.89"/>
          <rect x="97.75" y="102.63" width="4.89" height="4.89"/>
          <rect x="102.63" y="102.63" width="4.89" height="4.89"/>
          <rect x="107.52" y="102.63" width="4.89" height="4.89"/>
          <rect x="92.86" y="107.52" width="4.89" height="4.89"/>
          <rect x="97.75" y="107.52" width="4.89" height="4.89"/>
          <rect x="107.52" y="107.52" width="4.89" height="4.89"/>
          <rect x="92.86" y="112.41" width="4.89" height="4.89"/>
          <rect x="97.75" y="112.41" width="4.89" height="4.89"/>
          <rect x="102.63" y="112.41" width="4.89" height="4.89"/>
          <rect x="112.41" y="112.41" width="4.89" height="4.89"/>
          <rect x="63.54" y="127.07" width="14.66" height="14.66"/>
          <rect x="127.07" y="127.07" width="14.66" height="14.66"/>
          <rect x="127.07" y="63.54" width="14.66" height="14.66"/>
          <rect x="63.54" y="63.54" width="14.66" height="14.66"/>
          <rect y="63.54" width="14.66" height="14.66"/>
          <rect width="14.66" height="14.66"/>
          <rect x="14.66" y="53.76" width="48.87" height="9.77"/>
          <rect x="14.66" y="14.66" width="48.87" height="9.77"/>
          <rect x="53.76" y="14.66" width="9.77" height="48.87"/>
          <rect x="14.66" y="14.66" width="9.77" height="48.87"/>
          <rect x="24.44" y="24.44" width="4.89" height="4.89"/>
          <rect x="39.1" y="24.44" width="4.89" height="4.89"/>
          <rect x="43.99" y="24.44" width="4.89" height="4.89"/>
          <rect x="24.44" y="29.32" width="4.89" height="4.89"/>
          <rect x="29.32" y="29.32" width="4.89" height="4.89"/>
          <rect x="43.99" y="29.32" width="4.89" height="4.89"/>
          <rect x="48.87" y="29.32" width="4.89" height="4.89"/>
          <rect x="24.44" y="34.21" width="4.89" height="4.89"/>
          <rect x="34.21" y="34.21" width="4.89" height="4.89"/>
          <rect x="39.1" y="34.21" width="4.89" height="4.89"/>
          <rect x="43.99" y="34.21" width="4.89" height="4.89"/>
          <rect x="29.32" y="43.99" width="4.89" height="4.89"/>
          <rect x="39.1" y="43.99" width="4.89" height="4.89"/>
          <rect x="43.99" y="43.99" width="4.89" height="4.89"/>
          <rect x="29.32" y="48.87" width="4.89" height="4.89"/>
          <rect x="34.21" y="48.87" width="4.89" height="4.89"/>
          <rect x="43.99" y="48.87" width="4.89" height="4.89"/>
          <rect y="63.54" width="14.66" height="14.66"/>
          <rect x="63.54" y="63.54" width="14.66" height="14.66"/>
          <rect x="63.54" width="14.66" height="14.66"/>
          <rect width="14.66" height="14.66"/>
          <rect x="78.2" y="53.76" width="48.87" height="9.77"/>
          <rect x="78.2" y="14.66" width="48.87" height="9.77"/>
          <rect x="117.3" y="14.66" width="9.77" height="48.87"/>
          <rect x="78.2" y="14.66" width="9.77" height="48.87"/>
          <rect x="87.97" y="24.44" width="4.89" height="4.89"/>
          <rect x="102.63" y="24.44" width="4.89" height="4.89"/>
          <rect x="112.41" y="24.44" width="4.89" height="4.89"/>
          <rect x="87.97" y="29.32" width="4.89" height="4.89"/>
          <rect x="92.86" y="29.32" width="4.89" height="4.89"/>
          <rect x="97.75" y="29.32" width="4.89" height="4.89"/>
          <rect x="112.41" y="29.32" width="4.89" height="4.89"/>
          <rect x="97.75" y="34.21" width="4.89" height="4.89"/>
          <rect x="107.52" y="34.21" width="4.89" height="4.89"/>
          <rect x="97.75" y="39.1" width="4.89" height="4.89"/>
          <rect x="102.63" y="39.1" width="4.89" height="4.89"/>
          <rect x="107.52" y="39.1" width="4.89" height="4.89"/>
          <rect x="112.41" y="39.1" width="4.89" height="4.89"/>
          <rect x="87.97" y="43.99" width="4.89" height="4.89"/>
          <rect x="92.86" y="43.99" width="4.89" height="4.89"/>
          <rect x="97.75" y="43.99" width="4.89" height="4.89"/>
          <rect x="102.63" y="43.99" width="4.89" height="4.89"/>
          <rect x="107.52" y="43.99" width="4.89" height="4.89"/>
          <rect x="112.41" y="43.99" width="4.89" height="4.89"/>
          <rect x="92.86" y="48.87" width="4.89" height="4.89"/>
          <rect x="102.63" y="48.87" width="4.89" height="4.89"/>
          <rect x="112.41" y="48.87" width="4.89" height="4.89"/>
          <rect x="63.54" y="63.54" width="14.66" height="14.66"/>
          <rect x="127.07" y="63.54" width="14.66" height="14.66"/>
          <rect x="127.07" width="14.66" height="14.66"/>
          <rect x="63.54" width="14.66" height="14.66"/>
        </g>
        <g>
          <line class="cls-1" x1="145.76" y1="19.09" x2="145.76" y2="59.11"/>
          <polygon points="144.31 20.08 145.76 14.66 147.22 20.08 144.31 20.08"/>
          <polygon points="144.31 58.11 145.76 63.54 147.22 58.11 144.31 58.11"/>
        </g>
        <g>
          <line class="cls-1" x1="145.76" y1="73.77" x2="145.76" y2="67.96"/>
          <polygon points="147.22 72.78 145.76 78.2 144.31 72.78 147.22 72.78"/>
          <polygon points="147.22 68.96 145.76 63.54 144.31 68.96 147.22 68.96"/>
        </g>
        <line class="cls-1" x1="142.16" y1="14.66" x2="153.5" y2="14.66"/>
        <line class="cls-1" x1="142.16" y1="63.54" x2="153.5" y2="63.54"/>
        <line class="cls-1" x1="142.16" y1="78.2" x2="153.5" y2="78.2"/>
      </g>
    </g>
  </g>
</svg>