<?xml version="1.0" encoding="UTF-8"?>
<svg id="_图层_1" data-name="图层 1" xmlns="http://www.w3.org/2000/svg" version="1.1" viewBox="0 0 594.79 409.33">
  <defs>
    <style>
      .cls-1 {
        fill: #77ac30;
      }

      .cls-1, .cls-2, .cls-3, .cls-4, .cls-5, .cls-6, .cls-7, .cls-8, .cls-9, .cls-10, .cls-11, .cls-12, .cls-13, .cls-14, .cls-15, .cls-16, .cls-17, .cls-18, .cls-19, .cls-20, .cls-21, .cls-22, .cls-23, .cls-24, .cls-25, .cls-26, .cls-27, .cls-28, .cls-29, .cls-30, .cls-31, .cls-32, .cls-33, .cls-34, .cls-35, .cls-36, .cls-37, .cls-38, .cls-39, .cls-40, .cls-41, .cls-42, .cls-43, .cls-44 {
        stroke-width: 0px;
      }

      .cls-2 {
        fill: #c05cfb;
      }

      .cls-3 {
        fill: #dd5400;
      }

      .cls-4 {
        fill: #000;
      }

      .cls-5 {
        fill: #fa8ad4;
      }

      .cls-6 {
        fill: #fec04c;
      }

      .cls-7 {
        fill: #1171be;
      }

      .cls-45 {
        isolation: isolate;
      }

      .cls-8 {
        fill: #c04c0b;
      }

      .cls-9 {
        fill: #4dbeee;
      }

      .cls-10 {
        fill: #49db40;
      }

      .cls-11 {
        fill: #e951b8;
      }

      .cls-12 {
        fill: #a2142f;
      }

      .cls-13 {
        fill: #cb845d;
      }

      .cls-14 {
        fill: #027880;
      }

      .cls-15 {
        fill: #ffe864;
      }

      .cls-16 {
        fill: #ff453a;
      }

      .cls-17 {
        fill: #1fcfbe;
      }

      .cls-18 {
        fill: #3ac831;
      }

      .cls-19 {
        fill: #f267c5;
      }

      .cls-20 {
        fill: #d95319;
      }

      .cls-46 {
        fill: none;
        stroke: #262626;
        stroke-linecap: square;
        stroke-linejoin: round;
        stroke-width: 1.33px;
      }

      .cls-21 {
        fill: #ff7a74;
      }

      .cls-22 {
        fill: #104280;
      }

      .cls-23 {
        fill: #ffd60a;
      }

      .cls-24 {
        fill: #3baa32;
      }

      .cls-25 {
        fill: #02580e;
      }

      .cls-26 {
        fill: #5e2296;
      }

      .cls-27 {
        fill: #ffd19e;
      }

      .cls-28 {
        fill: #f57729;
      }

      .cls-29 {
        fill: #902622;
      }

      .cls-30 {
        fill: #5f1b08;
      }

      .cls-31 {
        fill: #7e2f8e;
      }

      .cls-32 {
        fill: #268cdd;
      }

      .cls-33 {
        fill: #0072bd;
      }

      .cls-34 {
        fill: #fe9043;
      }

      .cls-35 {
        fill: #6cf4ff;
      }

      .cls-36 {
        fill: #6582fd;
      }

      .cls-37 {
        fill: #74ebda;
      }

      .cls-38 {
        fill: #edb120;
      }

      .cls-39 {
        fill: #00a3a3;
      }

      .cls-40 {
        fill: #dc996c;
      }

      .cls-41 {
        fill: #54b6ff;
      }

      .cls-42 {
        fill: #b7312c;
      }

      .cls-43 {
        fill: #7da9ff;
      }

      .cls-44 {
        fill: #9c7720;
      }
    </style>
  </defs>
  <g>
    <line class="cls-46" x1=".67" y1="408.67" x2="594.12" y2="408.67"/>
    <line class="cls-46" x1=".67" y1=".67" x2="594.12" y2=".67"/>
    <line class="cls-46" x1=".67" y1="408.67" x2=".67" y2=".67"/>
    <line class="cls-46" x1="594.12" y1="408.67" x2="594.12" y2=".67"/>
  </g>
  <circle class="cls-33" cx="149.03" cy="37.76" r="13.33"/>
  <path class="cls-4" d="M149.03,25.09c7,0,12.67,5.67,12.67,12.67h0c0,7-5.67,12.67-12.67,12.67s-12.67-5.67-12.67-12.67,5.67-12.67,12.67-12.67ZM149.03,23.76c-7.73,0-14,6.27-14,14s6.27,14,14,14,14-6.27,14-14h0c0-7.73-6.27-14-14-14Z"/>
  <circle class="cls-20" cx="186.12" cy="37.76" r="13.33"/>
  <path class="cls-4" d="M186.12,25.09c7,0,12.67,5.67,12.67,12.67h0c0,7-5.67,12.67-12.67,12.67s-12.67-5.67-12.67-12.67,5.67-12.67,12.67-12.67ZM186.12,23.76c-7.73,0-14,6.27-14,14s6.27,14,14,14,14-6.27,14-14h0c0-7.73-6.27-14-14-14Z"/>
  <circle class="cls-38" cx="223.21" cy="37.76" r="13.33"/>
  <path class="cls-4" d="M223.21,25.09c7,0,12.67,5.67,12.67,12.67h0c0,7-5.67,12.67-12.67,12.67s-12.67-5.67-12.67-12.67,5.67-12.67,12.67-12.67ZM223.21,23.76c-7.73,0-14,6.27-14,14s6.27,14,14,14,14-6.27,14-14h0c0-7.73-6.27-14-14-14Z"/>
  <circle class="cls-31" cx="260.3" cy="37.76" r="13.33"/>
  <path class="cls-4" d="M260.3,25.09c7,0,12.67,5.67,12.67,12.67h0c0,7-5.67,12.67-12.67,12.67s-12.67-5.67-12.67-12.67,5.67-12.67,12.67-12.67ZM260.3,23.76c-7.73,0-14,6.27-14,14s6.27,14,14,14,14-6.27,14-14h0c0-7.73-6.27-14-14-14Z"/>
  <circle class="cls-1" cx="297.39" cy="37.76" r="13.33"/>
  <path class="cls-4" d="M297.39,25.09c7,0,12.67,5.67,12.67,12.67h0c0,7-5.67,12.67-12.67,12.67s-12.67-5.67-12.67-12.67,5.67-12.67,12.67-12.67ZM297.39,23.76c-7.73,0-14,6.27-14,14s6.27,14,14,14,14-6.27,14-14h0c0-7.73-6.27-14-14-14Z"/>
  <circle class="cls-9" cx="334.48" cy="37.76" r="13.33"/>
  <path class="cls-4" d="M334.48,25.09c7,0,12.67,5.67,12.67,12.67h0c0,7-5.67,12.67-12.67,12.67s-12.67-5.67-12.67-12.67,5.67-12.67,12.67-12.67ZM334.48,23.76c-7.73,0-14,6.27-14,14s6.27,14,14,14,14-6.27,14-14h0c0-7.73-6.27-14-14-14Z"/>
  <circle class="cls-12" cx="371.58" cy="37.76" r="13.33"/>
  <path class="cls-4" d="M371.58,25.09c7,0,12.67,5.67,12.67,12.67h0c0,7-5.67,12.67-12.67,12.67s-12.67-5.67-12.67-12.67,5.67-12.67,12.67-12.67ZM371.58,23.76c-7.73,0-14,6.27-14,14s6.27,14,14,14,14-6.27,14-14h0c0-7.73-6.27-14-14-14Z"/>
  <g class="cls-45">
    <path class="cls-4" d="M39.81,37.42l-.54-2.89c-.14-.79-.21-1.33-.21-1.62,0-.42.09-.72.26-.91s.41-.28.7-.28.52.1.71.29.28.45.28.77c0,.25-.08.84-.25,1.77l-.53,2.88h-.42ZM43.38,37.42l-.53-2.85-.21-1.18c-.01-.16-.02-.33-.02-.49,0-.41.09-.71.27-.9s.42-.28.72-.28c.28,0,.51.09.7.28s.28.44.28.76c0,.55-.06,1.15-.19,1.8l-.56,2.86h-.47Z"/>
    <path class="cls-4" d="M48.94,42c-.55-.27-.97-.64-1.26-1.12s-.44-1.01-.44-1.59c0-.89.33-1.65,1-2.29s1.52-.96,2.56-.96c.85,0,1.59.21,2.22.62h1.89c.28,0,.44,0,.49.02s.08.04.1.08c.04.06.06.16.06.31,0,.17-.02.29-.05.35-.02.03-.05.06-.1.08s-.21.03-.49.03h-1.16c.36.47.55,1.07.55,1.8,0,.83-.32,1.55-.96,2.14s-1.49.89-2.57.89c-.44,0-.9-.07-1.36-.2-.29.25-.48.46-.58.65s-.15.34-.15.47c0,.11.05.22.16.32s.32.18.63.22c.18.03.64.05,1.37.07,1.34.03,2.21.08,2.61.14.61.08,1.09.31,1.45.67s.54.81.54,1.35c0,.74-.35,1.43-1.04,2.07-1.02.95-2.34,1.43-3.97,1.43-1.26,0-2.32-.28-3.18-.85-.49-.33-.73-.66-.73-1.02,0-.16.04-.31.11-.47.11-.24.34-.58.68-1.01.05-.06.38-.41,1-1.05-.34-.2-.58-.38-.72-.54s-.21-.34-.21-.54c0-.23.09-.5.28-.8s.61-.74,1.28-1.3ZM48.84,45.26c-.31.33-.54.64-.69.93s-.23.55-.23.79c0,.31.19.59.57.82.65.4,1.59.61,2.82.61s2.04-.21,2.59-.62.83-.85.83-1.32c0-.34-.17-.58-.5-.72-.34-.14-1.01-.23-2.01-.25-1.46-.04-2.59-.11-3.38-.22ZM50.64,36.52c-.48,0-.89.19-1.21.58s-.49.97-.49,1.77c0,1.03.22,1.83.66,2.39.34.43.77.64,1.29.64s.9-.19,1.22-.56.48-.95.48-1.75c0-1.04-.22-1.85-.67-2.43-.33-.43-.76-.64-1.28-.64Z"/>
    <path class="cls-4" d="M58.05,39.68c0,1.33.32,2.37.97,3.12s1.42,1.13,2.29,1.13c.59,0,1.1-.16,1.53-.48s.8-.87,1.09-1.66l.3.2c-.14.89-.53,1.7-1.19,2.44s-1.48,1.1-2.47,1.1c-1.07,0-1.99-.42-2.76-1.25s-1.15-1.96-1.15-3.37c0-1.53.39-2.72,1.18-3.58s1.77-1.28,2.95-1.28c1,0,1.83.33,2.47.99s.97,1.54.97,2.65h-6.18ZM58.05,39.11h4.14c-.03-.57-.1-.98-.21-1.21-.16-.36-.41-.65-.73-.86s-.66-.31-1.01-.31c-.54,0-1.02.21-1.45.63s-.68,1-.75,1.75Z"/>
    <path class="cls-4" d="M68.08,37.95c.65-.65,1.04-1.03,1.15-1.12.29-.25.61-.44.95-.58s.67-.21,1.01-.21c.56,0,1.04.16,1.45.49s.67.8.81,1.42c.67-.78,1.24-1.29,1.7-1.54s.94-.37,1.43-.37.9.12,1.26.37.66.64.87,1.2c.14.38.21.97.21,1.78v3.85c0,.56.04.94.13,1.15.06.14.19.27.36.37s.46.15.86.15v.35h-4.41v-.35h.19c.38,0,.68-.08.9-.22.15-.1.26-.27.32-.5.03-.11.04-.43.04-.95v-3.85c0-.73-.09-1.24-.26-1.54-.25-.42-.66-.62-1.22-.62-.35,0-.69.09-1.04.26s-.77.49-1.26.96l-.02.11.02.42v4.27c0,.61.03.99.1,1.14s.2.28.39.38.51.15.97.15v.35h-4.52v-.35c.49,0,.83-.06,1.02-.18s.31-.29.39-.53c.03-.11.05-.43.05-.97v-3.85c0-.73-.11-1.25-.32-1.57-.29-.42-.69-.62-1.2-.62-.35,0-.7.09-1.04.28-.54.29-.96.61-1.25.97v4.79c0,.59.04.97.12,1.14s.2.31.36.4.48.13.97.13v.35h-4.42v-.35c.41,0,.7-.04.86-.13s.29-.23.37-.42.13-.56.13-1.12v-3.42c0-.98-.03-1.62-.09-1.9-.05-.21-.12-.36-.21-.44s-.23-.12-.4-.12c-.18,0-.4.05-.65.15l-.15-.35,2.7-1.09h.42v1.9Z"/>
    <path class="cls-4" d="M82.41,37.42l-.54-2.89c-.14-.79-.21-1.33-.21-1.62,0-.42.09-.72.26-.91s.41-.28.7-.28.52.1.71.29.28.45.28.77c0,.25-.08.84-.25,1.77l-.53,2.88h-.42ZM85.98,37.42l-.53-2.85-.21-1.18c-.01-.16-.02-.33-.02-.49,0-.41.09-.71.27-.9s.42-.28.72-.28c.28,0,.51.09.7.28s.28.44.28.76c0,.55-.06,1.15-.19,1.8l-.56,2.86h-.47Z"/>
  </g>
  <circle class="cls-33" cx="149.03" cy="74.85" r="13.33"/>
  <path class="cls-4" d="M149.03,62.18c7,0,12.67,5.67,12.67,12.67h0c0,7-5.67,12.67-12.67,12.67s-12.67-5.67-12.67-12.67,5.67-12.67,12.67-12.67ZM149.03,60.85c-7.73,0-14,6.27-14,14s6.27,14,14,14,14-6.27,14-14h0c0-7.73-6.27-14-14-14Z"/>
  <circle class="cls-20" cx="186.12" cy="74.85" r="13.33"/>
  <path class="cls-4" d="M186.12,62.18c7,0,12.67,5.67,12.67,12.67h0c0,7-5.67,12.67-12.67,12.67s-12.67-5.67-12.67-12.67,5.67-12.67,12.67-12.67ZM186.12,60.85c-7.73,0-14,6.27-14,14s6.27,14,14,14,14-6.27,14-14h0c0-7.73-6.27-14-14-14Z"/>
  <circle class="cls-38" cx="223.21" cy="74.85" r="13.33"/>
  <path class="cls-4" d="M223.21,62.18c7,0,12.67,5.67,12.67,12.67h0c0,7-5.67,12.67-12.67,12.67s-12.67-5.67-12.67-12.67,5.67-12.67,12.67-12.67ZM223.21,60.85c-7.73,0-14,6.27-14,14s6.27,14,14,14,14-6.27,14-14h0c0-7.73-6.27-14-14-14Z"/>
  <circle class="cls-31" cx="260.3" cy="74.85" r="13.33"/>
  <path class="cls-4" d="M260.3,62.18c7,0,12.67,5.67,12.67,12.67h0c0,7-5.67,12.67-12.67,12.67s-12.67-5.67-12.67-12.67,5.67-12.67,12.67-12.67ZM260.3,60.85c-7.73,0-14,6.27-14,14s6.27,14,14,14,14-6.27,14-14h0c0-7.73-6.27-14-14-14Z"/>
  <circle class="cls-1" cx="297.39" cy="74.85" r="13.33"/>
  <path class="cls-4" d="M297.39,62.18c7,0,12.67,5.67,12.67,12.67h0c0,7-5.67,12.67-12.67,12.67s-12.67-5.67-12.67-12.67,5.67-12.67,12.67-12.67ZM297.39,60.85c-7.73,0-14,6.27-14,14s6.27,14,14,14,14-6.27,14-14h0c0-7.73-6.27-14-14-14Z"/>
  <circle class="cls-9" cx="334.48" cy="74.85" r="13.33"/>
  <path class="cls-4" d="M334.48,62.18c7,0,12.67,5.67,12.67,12.67h0c0,7-5.67,12.67-12.67,12.67s-12.67-5.67-12.67-12.67,5.67-12.67,12.67-12.67ZM334.48,60.85c-7.73,0-14,6.27-14,14s6.27,14,14,14,14-6.27,14-14h0c0-7.73-6.27-14-14-14Z"/>
  <circle class="cls-12" cx="371.58" cy="74.85" r="13.33"/>
  <path class="cls-4" d="M371.58,62.18c7,0,12.67,5.67,12.67,12.67h0c0,7-5.67,12.67-12.67,12.67s-12.67-5.67-12.67-12.67,5.67-12.67,12.67-12.67ZM371.58,60.85c-7.73,0-14,6.27-14,14s6.27,14,14,14,14-6.27,14-14h0c0-7.73-6.27-14-14-14Z"/>
  <circle class="cls-23" cx="408.67" cy="74.85" r="13.33"/>
  <path class="cls-4" d="M408.67,62.18c7,0,12.67,5.67,12.67,12.67h0c0,7-5.67,12.67-12.67,12.67s-12.67-5.67-12.67-12.67,5.67-12.67,12.67-12.67ZM408.67,60.85c-7.73,0-14,6.27-14,14s6.27,14,14,14,14-6.27,14-14h0c0-7.73-6.27-14-14-14Z"/>
  <circle class="cls-36" cx="445.76" cy="74.85" r="13.33"/>
  <path class="cls-4" d="M445.76,62.18c7,0,12.67,5.67,12.67,12.67h0c0,7-5.67,12.67-12.67,12.67s-12.67-5.67-12.67-12.67,5.67-12.67,12.67-12.67ZM445.76,60.85c-7.73,0-14,6.27-14,14s6.27,14,14,14,14-6.27,14-14h0c0-7.73-6.27-14-14-14Z"/>
  <circle class="cls-16" cx="482.85" cy="74.85" r="13.33"/>
  <path class="cls-4" d="M482.85,62.18c7,0,12.67,5.67,12.67,12.67h0c0,7-5.67,12.67-12.67,12.67s-12.67-5.67-12.67-12.67,5.67-12.67,12.67-12.67ZM482.85,60.85c-7.73,0-14,6.27-14,14s6.27,14,14,14,14-6.27,14-14h0c0-7.73-6.27-14-14-14Z"/>
  <circle class="cls-39" cx="519.94" cy="74.85" r="13.33"/>
  <path class="cls-4" d="M519.94,62.18c7,0,12.67,5.67,12.67,12.67h0c0,7-5.67,12.67-12.67,12.67s-12.67-5.67-12.67-12.67,5.67-12.67,12.67-12.67ZM519.94,60.85c-7.73,0-14,6.27-14,14s6.27,14,14,14,14-6.27,14-14h0c0-7.73-6.27-14-14-14Z"/>
  <circle class="cls-13" cx="557.03" cy="74.85" r="13.33"/>
  <path class="cls-4" d="M557.03,62.18c7,0,12.67,5.67,12.67,12.67h0c0,7-5.67,12.67-12.67,12.67s-12.67-5.67-12.67-12.67,5.67-12.67,12.67-12.67ZM557.03,60.85c-7.73,0-14,6.27-14,14s6.27,14,14,14,14-6.27,14-14h0c0-7.73-6.27-14-14-14Z"/>
  <g class="cls-45">
    <path class="cls-4" d="M39.81,74.51l-.54-2.89c-.14-.79-.21-1.33-.21-1.62,0-.42.09-.72.26-.91s.41-.28.7-.28.52.1.71.29.28.45.28.77c0,.25-.08.84-.25,1.77l-.53,2.88h-.42ZM43.38,74.51l-.53-2.85-.21-1.18c-.01-.16-.02-.33-.02-.49,0-.41.09-.71.27-.9s.42-.28.72-.28c.28,0,.51.09.7.28s.28.44.28.76c0,.55-.06,1.15-.19,1.8l-.56,2.86h-.47Z"/>
    <path class="cls-4" d="M48.94,79.09c-.55-.27-.97-.64-1.26-1.12s-.44-1.01-.44-1.59c0-.89.33-1.65,1-2.29s1.52-.96,2.56-.96c.85,0,1.59.21,2.22.62h1.89c.28,0,.44,0,.49.02s.08.04.1.08c.04.06.06.16.06.31,0,.17-.02.29-.05.35-.02.03-.05.06-.1.08s-.21.03-.49.03h-1.16c.36.47.55,1.07.55,1.8,0,.83-.32,1.55-.96,2.14s-1.49.89-2.57.89c-.44,0-.9-.07-1.36-.2-.29.25-.48.46-.58.65s-.15.34-.15.47c0,.11.05.22.16.32s.32.18.63.22c.18.03.64.05,1.37.07,1.34.03,2.21.08,2.61.14.61.08,1.09.31,1.45.67s.54.81.54,1.35c0,.74-.35,1.43-1.04,2.07-1.02.95-2.34,1.43-3.97,1.43-1.26,0-2.32-.28-3.18-.85-.49-.33-.73-.66-.73-1.02,0-.16.04-.31.11-.47.11-.24.34-.58.68-1.01.05-.06.38-.41,1-1.05-.34-.2-.58-.38-.72-.54s-.21-.34-.21-.54c0-.23.09-.5.28-.8s.61-.74,1.28-1.3ZM48.84,82.35c-.31.33-.54.64-.69.93s-.23.55-.23.79c0,.31.19.59.57.82.65.4,1.59.61,2.82.61s2.04-.21,2.59-.62.83-.85.83-1.32c0-.34-.17-.58-.5-.72-.34-.14-1.01-.23-2.01-.25-1.46-.04-2.59-.11-3.38-.22ZM50.64,73.61c-.48,0-.89.19-1.21.58s-.49.97-.49,1.77c0,1.03.22,1.83.66,2.39.34.43.77.64,1.29.64s.9-.19,1.22-.56.48-.95.48-1.75c0-1.04-.22-1.85-.67-2.43-.33-.43-.76-.64-1.28-.64Z"/>
    <path class="cls-4" d="M58.05,76.77c0,1.33.32,2.37.97,3.12s1.42,1.13,2.29,1.13c.59,0,1.1-.16,1.53-.48s.8-.87,1.09-1.66l.3.2c-.14.89-.53,1.7-1.19,2.44s-1.48,1.1-2.47,1.1c-1.07,0-1.99-.42-2.76-1.25s-1.15-1.96-1.15-3.37c0-1.53.39-2.72,1.18-3.58s1.77-1.28,2.95-1.28c1,0,1.83.33,2.47.99s.97,1.54.97,2.65h-6.18ZM58.05,76.21h4.14c-.03-.57-.1-.98-.21-1.21-.16-.36-.41-.65-.73-.86s-.66-.31-1.01-.31c-.54,0-1.02.21-1.45.63s-.68,1-.75,1.75Z"/>
    <path class="cls-4" d="M68.08,75.04c.65-.65,1.04-1.03,1.15-1.12.29-.25.61-.44.95-.58s.67-.21,1.01-.21c.56,0,1.04.16,1.45.49s.67.8.81,1.42c.67-.78,1.24-1.29,1.7-1.54s.94-.37,1.43-.37.9.12,1.26.37.66.64.87,1.2c.14.38.21.97.21,1.78v3.85c0,.56.04.94.13,1.15.06.14.19.27.36.37s.46.15.86.15v.35h-4.41v-.35h.19c.38,0,.68-.08.9-.22.15-.1.26-.27.32-.5.03-.11.04-.43.04-.95v-3.85c0-.73-.09-1.24-.26-1.54-.25-.42-.66-.62-1.22-.62-.35,0-.69.09-1.04.26s-.77.49-1.26.96l-.02.11.02.42v4.27c0,.61.03.99.1,1.14s.2.28.39.38.51.15.97.15v.35h-4.52v-.35c.49,0,.83-.06,1.02-.18s.31-.29.39-.53c.03-.11.05-.43.05-.97v-3.85c0-.73-.11-1.25-.32-1.57-.29-.42-.69-.62-1.2-.62-.35,0-.7.09-1.04.28-.54.29-.96.61-1.25.97v4.79c0,.59.04.97.12,1.14s.2.31.36.4.48.13.97.13v.35h-4.42v-.35c.41,0,.7-.04.86-.13s.29-.23.37-.42.13-.56.13-1.12v-3.42c0-.98-.03-1.62-.09-1.9-.05-.21-.12-.36-.21-.44s-.23-.12-.4-.12c-.18,0-.4.05-.65.15l-.15-.35,2.7-1.09h.42v1.9Z"/>
    <path class="cls-4" d="M82.7,70.4l3.22-1.57h.32v11.18c0,.74.03,1.2.09,1.39s.19.32.39.42.59.15,1.19.17v.36h-4.98v-.36c.62-.01,1.03-.07,1.21-.16s.31-.22.38-.38.11-.64.11-1.43v-7.15c0-.96-.03-1.58-.1-1.86-.05-.21-.13-.36-.25-.46s-.27-.15-.43-.15c-.24,0-.58.1-1.01.3l-.15-.3Z"/>
    <path class="cls-4" d="M99.53,79.8l-.93,2.55h-7.81v-.36c2.3-2.1,3.92-3.81,4.85-5.14s1.41-2.54,1.41-3.64c0-.84-.26-1.53-.77-2.07s-1.13-.81-1.85-.81c-.65,0-1.24.19-1.75.57s-.9.94-1.15,1.67h-.36c.16-1.2.58-2.13,1.25-2.77s1.52-.97,2.52-.97c1.07,0,1.97.34,2.69,1.04s1.08,1.5,1.08,2.44c0,.67-.16,1.34-.47,2.01-.48,1.05-1.26,2.17-2.34,3.35-1.62,1.77-2.63,2.84-3.04,3.2h3.46c.7,0,1.2-.03,1.48-.08s.54-.16.77-.32.43-.39.6-.68h.36Z"/>
    <path class="cls-4" d="M102.41,74.51l-.54-2.89c-.14-.79-.21-1.33-.21-1.62,0-.42.09-.72.26-.91s.41-.28.7-.28.52.1.71.29.28.45.28.77c0,.25-.08.84-.25,1.77l-.53,2.88h-.42ZM105.98,74.51l-.53-2.85-.21-1.18c-.01-.16-.02-.33-.02-.49,0-.41.09-.71.27-.9s.42-.28.72-.28c.28,0,.51.09.7.28s.28.44.28.76c0,.55-.06,1.15-.19,1.8l-.56,2.86h-.47Z"/>
  </g>
  <circle class="cls-32" cx="149.03" cy="111.94" r="13.33"/>
  <path class="cls-4" d="M149.03,99.27c7,0,12.67,5.67,12.67,12.67h0c0,7-5.67,12.67-12.67,12.67s-12.67-5.67-12.67-12.67,5.67-12.67,12.67-12.67ZM149.03,97.94c-7.73,0-14,6.27-14,14s6.27,14,14,14,14-6.27,14-14h0c0-7.73-6.27-14-14-14Z"/>
  <circle class="cls-28" cx="186.12" cy="111.94" r="13.33"/>
  <path class="cls-4" d="M186.12,99.27c7,0,12.67,5.67,12.67,12.67h0c0,7-5.67,12.67-12.67,12.67s-12.67-5.67-12.67-12.67,5.67-12.67,12.67-12.67ZM186.12,97.94c-7.73,0-14,6.27-14,14s6.27,14,14,14,14-6.27,14-14h0c0-7.73-6.27-14-14-14Z"/>
  <circle class="cls-15" cx="223.21" cy="111.94" r="13.33"/>
  <path class="cls-4" d="M223.21,99.27c7,0,12.67,5.67,12.67,12.67h0c0,7-5.67,12.67-12.67,12.67s-12.67-5.67-12.67-12.67,5.67-12.67,12.67-12.67ZM223.21,97.94c-7.73,0-14,6.27-14,14s6.27,14,14,14,14-6.27,14-14h0c0-7.73-6.27-14-14-14Z"/>
  <circle class="cls-2" cx="260.3" cy="111.94" r="13.33"/>
  <path class="cls-4" d="M260.3,99.27c7,0,12.67,5.67,12.67,12.67h0c0,7-5.67,12.67-12.67,12.67s-12.67-5.67-12.67-12.67,5.67-12.67,12.67-12.67ZM260.3,97.94c-7.73,0-14,6.27-14,14s6.27,14,14,14,14-6.27,14-14h0c0-7.73-6.27-14-14-14Z"/>
  <circle class="cls-10" cx="297.39" cy="111.94" r="13.33"/>
  <path class="cls-4" d="M297.39,99.27c7,0,12.67,5.67,12.67,12.67h0c0,7-5.67,12.67-12.67,12.67s-12.67-5.67-12.67-12.67,5.67-12.67,12.67-12.67ZM297.39,97.94c-7.73,0-14,6.27-14,14s6.27,14,14,14,14-6.27,14-14h0c0-7.73-6.27-14-14-14Z"/>
  <circle class="cls-35" cx="334.48" cy="111.94" r="13.33"/>
  <path class="cls-4" d="M334.48,99.27c7,0,12.67,5.67,12.67,12.67h0c0,7-5.67,12.67-12.67,12.67s-12.67-5.67-12.67-12.67,5.67-12.67,12.67-12.67ZM334.48,97.94c-7.73,0-14,6.27-14,14s6.27,14,14,14,14-6.27,14-14h0c0-7.73-6.27-14-14-14Z"/>
  <circle class="cls-19" cx="371.58" cy="111.94" r="13.33"/>
  <path class="cls-4" d="M371.58,99.27c7,0,12.67,5.67,12.67,12.67h0c0,7-5.67,12.67-12.67,12.67s-12.67-5.67-12.67-12.67,5.67-12.67,12.67-12.67ZM371.58,97.94c-7.73,0-14,6.27-14,14s6.27,14,14,14,14-6.27,14-14h0c0-7.73-6.27-14-14-14Z"/>
  <g class="cls-45">
    <path class="cls-4" d="M39.81,111.6l-.54-2.89c-.14-.79-.21-1.33-.21-1.62,0-.42.09-.72.26-.91s.41-.28.7-.28.52.1.71.29.28.45.28.77c0,.25-.08.84-.25,1.77l-.53,2.88h-.42ZM43.38,111.6l-.53-2.85-.21-1.18c-.01-.16-.02-.33-.02-.49,0-.41.09-.71.27-.9s.42-.28.72-.28c.28,0,.51.09.7.28s.28.44.28.76c0,.55-.06,1.15-.19,1.8l-.56,2.86h-.47Z"/>
    <path class="cls-4" d="M48.94,116.18c-.55-.27-.97-.64-1.26-1.12s-.44-1.01-.44-1.59c0-.89.33-1.65,1-2.29s1.52-.96,2.56-.96c.85,0,1.59.21,2.22.62h1.89c.28,0,.44,0,.49.02s.08.04.1.08c.04.06.06.16.06.31,0,.17-.02.29-.05.35-.02.03-.05.06-.1.08s-.21.03-.49.03h-1.16c.36.47.55,1.07.55,1.8,0,.83-.32,1.55-.96,2.14s-1.49.89-2.57.89c-.44,0-.9-.07-1.36-.2-.29.25-.48.46-.58.65s-.15.34-.15.47c0,.11.05.22.16.32s.32.18.63.22c.18.03.64.05,1.37.07,1.34.03,2.21.08,2.61.14.61.08,1.09.31,1.45.67s.54.81.54,1.35c0,.74-.35,1.43-1.04,2.07-1.02.95-2.34,1.43-3.97,1.43-1.26,0-2.32-.28-3.18-.85-.49-.33-.73-.66-.73-1.02,0-.16.04-.31.11-.47.11-.24.34-.58.68-1.01.05-.06.38-.41,1-1.05-.34-.2-.58-.38-.72-.54s-.21-.34-.21-.54c0-.23.09-.5.28-.8s.61-.74,1.28-1.3ZM48.84,119.44c-.31.33-.54.64-.69.93s-.23.55-.23.79c0,.31.19.59.57.82.65.4,1.59.61,2.82.61s2.04-.21,2.59-.62.83-.85.83-1.32c0-.34-.17-.58-.5-.72-.34-.14-1.01-.23-2.01-.25-1.46-.04-2.59-.11-3.38-.22ZM50.64,110.7c-.48,0-.89.19-1.21.58s-.49.97-.49,1.77c0,1.03.22,1.83.66,2.39.34.43.77.64,1.29.64s.9-.19,1.22-.56.48-.95.48-1.75c0-1.04-.22-1.85-.67-2.43-.33-.43-.76-.64-1.28-.64Z"/>
    <path class="cls-4" d="M59.62,105.55v11.87c0,.56.04.93.12,1.11s.21.32.38.42.48.14.95.14v.35h-4.38v-.35c.41,0,.69-.04.84-.13s.27-.22.35-.42.13-.57.13-1.12v-8.12c0-1.01-.02-1.63-.07-1.86s-.12-.39-.22-.47-.23-.13-.39-.13c-.17,0-.38.05-.64.16l-.17-.34,2.67-1.09h.44Z"/>
    <path class="cls-4" d="M66.48,110.23c1.35,0,2.44.51,3.26,1.54.7.88,1.04,1.89,1.04,3.03,0,.8-.19,1.61-.58,2.43s-.91,1.44-1.59,1.86-1.42.62-2.25.62c-1.35,0-2.42-.54-3.21-1.61-.67-.91-1.01-1.92-1.01-3.05,0-.82.2-1.64.61-2.45s.94-1.41,1.61-1.8,1.37-.58,2.11-.58ZM66.18,110.87c-.35,0-.69.1-1.04.31s-.63.56-.84,1.08-.32,1.17-.32,1.98c0,1.3.26,2.42.78,3.37s1.2,1.42,2.05,1.42c.63,0,1.15-.26,1.56-.78s.62-1.42.62-2.69c0-1.59-.34-2.84-1.03-3.75-.46-.62-1.05-.94-1.77-.94Z"/>
    <path class="cls-4" d="M71.61,110.49h3.75v.36c-.35.03-.57.09-.68.19s-.16.24-.16.42c0,.2.06.45.17.73l1.91,5.15,1.92-4.19-.51-1.32c-.16-.39-.36-.66-.62-.81-.14-.09-.41-.15-.8-.17v-.36h4.26v.36c-.47.02-.8.1-1,.25-.13.1-.2.27-.2.5,0,.13.03.26.08.4l2.03,5.14,1.88-4.95c.13-.35.2-.63.2-.84,0-.12-.06-.23-.19-.33s-.38-.15-.75-.17v-.36h2.82v.36c-.57.08-.98.47-1.25,1.15l-2.99,7.71h-.4l-2.24-5.71-2.61,5.71h-.36l-2.87-7.52c-.19-.48-.37-.8-.56-.96s-.47-.29-.86-.38v-.36Z"/>
    <path class="cls-4" d="M87.97,111.6l-.54-2.89c-.14-.79-.21-1.33-.21-1.62,0-.42.09-.72.26-.91s.41-.28.7-.28.52.1.71.29.28.45.28.77c0,.25-.08.84-.25,1.77l-.53,2.88h-.42ZM91.55,111.6l-.53-2.85-.21-1.18c-.01-.16-.02-.33-.02-.49,0-.41.09-.71.27-.9s.42-.28.72-.28c.28,0,.51.09.7.28s.28.44.28.76c0,.55-.06,1.15-.19,1.8l-.56,2.86h-.47Z"/>
  </g>
  <circle class="cls-32" cx="149.03" cy="149.03" r="13.33"/>
  <path class="cls-4" d="M149.03,136.36c7,0,12.67,5.67,12.67,12.67h0c0,7-5.67,12.67-12.67,12.67s-12.67-5.67-12.67-12.67,5.67-12.67,12.67-12.67ZM149.03,135.03c-7.73,0-14,6.27-14,14s6.27,14,14,14,14-6.27,14-14h0c0-7.73-6.27-14-14-14Z"/>
  <circle class="cls-28" cx="186.12" cy="149.03" r="13.33"/>
  <path class="cls-4" d="M186.12,136.36c7,0,12.67,5.67,12.67,12.67h0c0,7-5.67,12.67-12.67,12.67s-12.67-5.67-12.67-12.67,5.67-12.67,12.67-12.67ZM186.12,135.03c-7.73,0-14,6.27-14,14s6.27,14,14,14,14-6.27,14-14h0c0-7.73-6.27-14-14-14Z"/>
  <circle class="cls-15" cx="223.21" cy="149.03" r="13.33"/>
  <path class="cls-4" d="M223.21,136.36c7,0,12.67,5.67,12.67,12.67h0c0,7-5.67,12.67-12.67,12.67s-12.67-5.67-12.67-12.67,5.67-12.67,12.67-12.67ZM223.21,135.03c-7.73,0-14,6.27-14,14s6.27,14,14,14,14-6.27,14-14h0c0-7.73-6.27-14-14-14Z"/>
  <circle class="cls-2" cx="260.3" cy="149.03" r="13.33"/>
  <path class="cls-4" d="M260.3,136.36c7,0,12.67,5.67,12.67,12.67h0c0,7-5.67,12.67-12.67,12.67s-12.67-5.67-12.67-12.67,5.67-12.67,12.67-12.67ZM260.3,135.03c-7.73,0-14,6.27-14,14s6.27,14,14,14,14-6.27,14-14h0c0-7.73-6.27-14-14-14Z"/>
  <circle class="cls-10" cx="297.39" cy="149.03" r="13.33"/>
  <path class="cls-4" d="M297.39,136.36c7,0,12.67,5.67,12.67,12.67h0c0,7-5.67,12.67-12.67,12.67s-12.67-5.67-12.67-12.67,5.67-12.67,12.67-12.67ZM297.39,135.03c-7.73,0-14,6.27-14,14s6.27,14,14,14,14-6.27,14-14h0c0-7.73-6.27-14-14-14Z"/>
  <circle class="cls-35" cx="334.48" cy="149.03" r="13.33"/>
  <path class="cls-4" d="M334.48,136.36c7,0,12.67,5.67,12.67,12.67h0c0,7-5.67,12.67-12.67,12.67s-12.67-5.67-12.67-12.67,5.67-12.67,12.67-12.67ZM334.48,135.03c-7.73,0-14,6.27-14,14s6.27,14,14,14,14-6.27,14-14h0c0-7.73-6.27-14-14-14Z"/>
  <circle class="cls-19" cx="371.58" cy="149.03" r="13.33"/>
  <path class="cls-4" d="M371.58,136.36c7,0,12.67,5.67,12.67,12.67h0c0,7-5.67,12.67-12.67,12.67s-12.67-5.67-12.67-12.67,5.67-12.67,12.67-12.67ZM371.58,135.03c-7.73,0-14,6.27-14,14s6.27,14,14,14,14-6.27,14-14h0c0-7.73-6.27-14-14-14Z"/>
  <circle class="cls-6" cx="408.67" cy="149.03" r="13.33"/>
  <path class="cls-4" d="M408.67,136.36c7,0,12.67,5.67,12.67,12.67h0c0,7-5.67,12.67-12.67,12.67s-12.67-5.67-12.67-12.67,5.67-12.67,12.67-12.67ZM408.67,135.03c-7.73,0-14,6.27-14,14s6.27,14,14,14,14-6.27,14-14h0c0-7.73-6.27-14-14-14Z"/>
  <circle class="cls-43" cx="445.76" cy="149.03" r="13.33"/>
  <path class="cls-4" d="M445.76,136.36c7,0,12.67,5.67,12.67,12.67h0c0,7-5.67,12.67-12.67,12.67s-12.67-5.67-12.67-12.67,5.67-12.67,12.67-12.67ZM445.76,135.03c-7.73,0-14,6.27-14,14s6.27,14,14,14,14-6.27,14-14h0c0-7.73-6.27-14-14-14Z"/>
  <circle class="cls-21" cx="482.85" cy="149.03" r="13.33"/>
  <path class="cls-4" d="M482.85,136.36c7,0,12.67,5.67,12.67,12.67h0c0,7-5.67,12.67-12.67,12.67s-12.67-5.67-12.67-12.67,5.67-12.67,12.67-12.67ZM482.85,135.03c-7.73,0-14,6.27-14,14s6.27,14,14,14,14-6.27,14-14h0c0-7.73-6.27-14-14-14Z"/>
  <circle class="cls-17" cx="519.94" cy="149.03" r="13.33"/>
  <path class="cls-4" d="M519.94,136.36c7,0,12.67,5.67,12.67,12.67h0c0,7-5.67,12.67-12.67,12.67s-12.67-5.67-12.67-12.67,5.67-12.67,12.67-12.67ZM519.94,135.03c-7.73,0-14,6.27-14,14s6.27,14,14,14,14-6.27,14-14h0c0-7.73-6.27-14-14-14Z"/>
  <circle class="cls-40" cx="557.03" cy="149.03" r="13.33"/>
  <path class="cls-4" d="M557.03,136.36c7,0,12.67,5.67,12.67,12.67h0c0,7-5.67,12.67-12.67,12.67s-12.67-5.67-12.67-12.67,5.67-12.67,12.67-12.67ZM557.03,135.03c-7.73,0-14,6.27-14,14s6.27,14,14,14,14-6.27,14-14h0c0-7.73-6.27-14-14-14Z"/>
  <g class="cls-45">
    <path class="cls-4" d="M39.81,148.69l-.54-2.89c-.14-.79-.21-1.33-.21-1.62,0-.42.09-.72.26-.91s.41-.28.7-.28.52.1.71.29.28.45.28.77c0,.25-.08.84-.25,1.77l-.53,2.88h-.42ZM43.38,148.69l-.53-2.85-.21-1.18c-.01-.16-.02-.33-.02-.49,0-.41.09-.71.27-.9s.42-.28.72-.28c.28,0,.51.09.7.28s.28.44.28.76c0,.55-.06,1.15-.19,1.8l-.56,2.86h-.47Z"/>
    <path class="cls-4" d="M48.94,153.27c-.55-.27-.97-.64-1.26-1.12s-.44-1.01-.44-1.59c0-.89.33-1.65,1-2.29s1.52-.96,2.56-.96c.85,0,1.59.21,2.22.62h1.89c.28,0,.44,0,.49.02s.08.04.1.08c.04.06.06.16.06.31,0,.17-.02.29-.05.35-.02.03-.05.06-.1.08s-.21.03-.49.03h-1.16c.36.47.55,1.07.55,1.8,0,.83-.32,1.55-.96,2.14s-1.49.89-2.57.89c-.44,0-.9-.07-1.36-.2-.29.25-.48.46-.58.65s-.15.34-.15.47c0,.11.05.22.16.32s.32.18.63.22c.18.03.64.05,1.37.07,1.34.03,2.21.08,2.61.14.61.08,1.09.31,1.45.67s.54.81.54,1.35c0,.74-.35,1.43-1.04,2.07-1.02.95-2.34,1.43-3.97,1.43-1.26,0-2.32-.28-3.18-.85-.49-.33-.73-.66-.73-1.02,0-.16.04-.31.11-.47.11-.24.34-.58.68-1.01.05-.06.38-.41,1-1.05-.34-.2-.58-.38-.72-.54s-.21-.34-.21-.54c0-.23.09-.5.28-.8s.61-.74,1.28-1.3ZM48.84,156.53c-.31.33-.54.64-.69.93s-.23.55-.23.79c0,.31.19.59.57.82.65.4,1.59.61,2.82.61s2.04-.21,2.59-.62.83-.85.83-1.32c0-.34-.17-.58-.5-.72-.34-.14-1.01-.23-2.01-.25-1.46-.04-2.59-.11-3.38-.22ZM50.64,147.79c-.48,0-.89.19-1.21.58s-.49.97-.49,1.77c0,1.03.22,1.83.66,2.39.34.43.77.64,1.29.64s.9-.19,1.22-.56.48-.95.48-1.75c0-1.04-.22-1.85-.67-2.43-.33-.43-.76-.64-1.28-.64Z"/>
    <path class="cls-4" d="M59.62,142.64v11.87c0,.56.04.93.12,1.11s.21.32.38.42.48.14.95.14v.35h-4.38v-.35c.41,0,.69-.04.84-.13s.27-.22.35-.42.13-.57.13-1.12v-8.12c0-1.01-.02-1.63-.07-1.86s-.12-.39-.22-.47-.23-.13-.39-.13c-.17,0-.38.05-.64.16l-.17-.34,2.67-1.09h.44Z"/>
    <path class="cls-4" d="M66.48,147.32c1.35,0,2.44.51,3.26,1.54.7.88,1.04,1.89,1.04,3.03,0,.8-.19,1.61-.58,2.43s-.91,1.44-1.59,1.86-1.42.62-2.25.62c-1.35,0-2.42-.54-3.21-1.61-.67-.91-1.01-1.92-1.01-3.05,0-.82.2-1.64.61-2.45s.94-1.41,1.61-1.8,1.37-.58,2.11-.58ZM66.18,147.96c-.35,0-.69.1-1.04.31s-.63.56-.84,1.08-.32,1.17-.32,1.98c0,1.3.26,2.42.78,3.37s1.2,1.42,2.05,1.42c.63,0,1.15-.26,1.56-.78s.62-1.42.62-2.69c0-1.59-.34-2.84-1.03-3.75-.46-.62-1.05-.94-1.77-.94Z"/>
    <path class="cls-4" d="M71.61,147.59h3.75v.36c-.35.03-.57.09-.68.19s-.16.24-.16.42c0,.2.06.45.17.73l1.91,5.15,1.92-4.19-.51-1.32c-.16-.39-.36-.66-.62-.81-.14-.09-.41-.15-.8-.17v-.36h4.26v.36c-.47.02-.8.1-1,.25-.13.1-.2.27-.2.5,0,.13.03.26.08.4l2.03,5.14,1.88-4.95c.13-.35.2-.63.2-.84,0-.12-.06-.23-.19-.33s-.38-.15-.75-.17v-.36h2.82v.36c-.57.08-.98.47-1.25,1.15l-2.99,7.71h-.4l-2.24-5.71-2.61,5.71h-.36l-2.87-7.52c-.19-.48-.37-.8-.56-.96s-.47-.29-.86-.38v-.36Z"/>
    <path class="cls-4" d="M88.27,144.59l3.22-1.57h.32v11.18c0,.74.03,1.2.09,1.39s.19.32.39.42.59.15,1.19.17v.36h-4.98v-.36c.62-.01,1.03-.07,1.21-.16s.31-.22.38-.38.11-.64.11-1.43v-7.15c0-.96-.03-1.58-.1-1.86-.05-.21-.13-.36-.25-.46s-.27-.15-.43-.15c-.24,0-.58.1-1.01.3l-.15-.3Z"/>
    <path class="cls-4" d="M105.09,153.98l-.93,2.55h-7.81v-.36c2.3-2.1,3.92-3.81,4.85-5.14s1.41-2.54,1.41-3.64c0-.84-.26-1.53-.77-2.07s-1.13-.81-1.85-.81c-.65,0-1.24.19-1.75.57s-.9.94-1.15,1.67h-.36c.16-1.2.58-2.13,1.25-2.77s1.52-.97,2.52-.97c1.07,0,1.97.34,2.69,1.04s1.08,1.5,1.08,2.44c0,.67-.16,1.34-.47,2.01-.48,1.05-1.26,2.17-2.34,3.35-1.62,1.77-2.63,2.84-3.04,3.2h3.46c.7,0,1.2-.03,1.48-.08s.54-.16.77-.32.43-.39.6-.68h.36Z"/>
    <path class="cls-4" d="M107.97,148.69l-.54-2.89c-.14-.79-.21-1.33-.21-1.62,0-.42.09-.72.26-.91s.41-.28.7-.28.52.1.71.29.28.45.28.77c0,.25-.08.84-.25,1.77l-.53,2.88h-.42ZM111.55,148.69l-.53-2.85-.21-1.18c-.01-.16-.02-.33-.02-.49,0-.41.09-.71.27-.9s.42-.28.72-.28c.28,0,.51.09.7.28s.28.44.28.76c0,.55-.06,1.15-.19,1.8l-.56,2.86h-.47Z"/>
  </g>
  <circle class="cls-22" cx="149.03" cy="186.12" r="13.33"/>
  <path class="cls-4" d="M149.03,173.45c7,0,12.67,5.67,12.67,12.67h0c0,7-5.67,12.67-12.67,12.67s-12.67-5.67-12.67-12.67,5.67-12.67,12.67-12.67ZM149.03,172.12c-7.73,0-14,6.27-14,14s6.27,14,14,14,14-6.27,14-14h0c0-7.73-6.27-14-14-14Z"/>
  <circle class="cls-41" cx="186.12" cy="186.12" r="13.33"/>
  <path class="cls-4" d="M186.12,173.45c7,0,12.67,5.67,12.67,12.67h0c0,7-5.67,12.67-12.67,12.67s-12.67-5.67-12.67-12.67,5.67-12.67,12.67-12.67ZM186.12,172.12c-7.73,0-14,6.27-14,14s6.27,14,14,14,14-6.27,14-14h0c0-7.73-6.27-14-14-14Z"/>
  <circle class="cls-16" cx="223.21" cy="186.12" r="13.33"/>
  <path class="cls-4" d="M223.21,173.45c7,0,12.67,5.67,12.67,12.67h0c0,7-5.67,12.67-12.67,12.67s-12.67-5.67-12.67-12.67,5.67-12.67,12.67-12.67ZM223.21,172.12c-7.73,0-14,6.27-14,14s6.27,14,14,14,14-6.27,14-14h0c0-7.73-6.27-14-14-14Z"/>
  <circle class="cls-29" cx="260.3" cy="186.12" r="13.33"/>
  <path class="cls-4" d="M260.3,173.45c7,0,12.67,5.67,12.67,12.67h0c0,7-5.67,12.67-12.67,12.67s-12.67-5.67-12.67-12.67,5.67-12.67,12.67-12.67ZM260.3,172.12c-7.73,0-14,6.27-14,14s6.27,14,14,14,14-6.27,14-14h0c0-7.73-6.27-14-14-14Z"/>
  <circle class="cls-7" cx="297.39" cy="186.12" r="13.33"/>
  <path class="cls-4" d="M297.39,173.45c7,0,12.67,5.67,12.67,12.67h0c0,7-5.67,12.67-12.67,12.67s-12.67-5.67-12.67-12.67,5.67-12.67,12.67-12.67ZM297.39,172.12c-7.73,0-14,6.27-14,14s6.27,14,14,14,14-6.27,14-14h0c0-7.73-6.27-14-14-14Z"/>
  <g class="cls-45">
    <path class="cls-4" d="M39.81,185.78l-.54-2.89c-.14-.79-.21-1.33-.21-1.62,0-.42.09-.72.26-.91s.41-.28.7-.28.52.1.71.29.28.45.28.77c0,.25-.08.84-.25,1.77l-.53,2.88h-.42ZM43.38,185.78l-.53-2.85-.21-1.18c-.01-.16-.02-.33-.02-.49,0-.41.09-.71.27-.9s.42-.28.72-.28c.28,0,.51.09.7.28s.28.44.28.76c0,.55-.06,1.15-.19,1.8l-.56,2.86h-.47Z"/>
    <path class="cls-4" d="M52.33,184.41v3.05h-.32c-.25-.96-.56-1.61-.95-1.95s-.88-.52-1.48-.52c-.46,0-.82.12-1.1.36s-.42.51-.42.8c0,.36.1.68.31.94.2.27.61.55,1.23.85l1.43.69c1.32.64,1.98,1.49,1.98,2.55,0,.81-.31,1.47-.92,1.97s-1.3.75-2.07.75c-.55,0-1.17-.1-1.88-.29-.21-.07-.39-.1-.53-.1-.15,0-.27.08-.35.25h-.32v-3.19h.32c.18.91.53,1.6,1.04,2.06s1.09.69,1.73.69c.45,0,.82-.13,1.1-.4s.42-.58.42-.95c0-.45-.16-.83-.47-1.13s-.95-.69-1.89-1.16-1.56-.89-1.86-1.27c-.29-.37-.44-.84-.44-1.41,0-.74.25-1.35.76-1.85s1.16-.74,1.96-.74c.35,0,.78.08,1.28.22.33.1.55.15.66.15.1,0,.19-.02.24-.07s.13-.15.21-.3h.32Z"/>
    <path class="cls-4" d="M59.4,192.33c-.92.71-1.49,1.12-1.73,1.23-.35.16-.73.24-1.12.24-.62,0-1.13-.21-1.53-.63s-.6-.98-.6-1.67c0-.44.1-.81.29-1.13.27-.44.73-.86,1.39-1.25s1.76-.87,3.3-1.43v-.35c0-.89-.14-1.5-.42-1.84s-.69-.5-1.24-.5c-.41,0-.74.11-.98.33-.25.22-.37.48-.37.76l.02.57c0,.3-.08.53-.23.69s-.35.24-.6.24-.44-.08-.59-.25-.23-.4-.23-.69c0-.56.29-1.07.86-1.54s1.38-.7,2.41-.7c.79,0,1.45.13,1.95.4.38.2.67.52.85.95.12.28.18.85.18,1.72v3.04c0,.85.02,1.38.05,1.57s.09.32.16.39.16.1.26.1c.1,0,.2-.02.27-.07.14-.08.4-.32.79-.71v.55c-.73.98-1.43,1.46-2.09,1.46-.32,0-.57-.11-.76-.33s-.29-.6-.29-1.13ZM59.4,191.7v-3.41c-.98.39-1.62.67-1.9.83-.51.29-.88.59-1.1.9s-.33.65-.33,1.03c0,.47.14.86.42,1.17s.6.46.97.46c.49,0,1.15-.33,1.95-.98Z"/>
    <path class="cls-4" d="M66.29,184.41v7.19c0,.56.04.93.12,1.12s.2.32.36.42.45.14.87.14v.35h-4.35v-.35c.44,0,.73-.04.88-.13s.27-.22.36-.42.13-.57.13-1.12v-3.45c0-.97-.03-1.6-.09-1.88-.05-.21-.12-.35-.21-.43s-.23-.12-.4-.12c-.18,0-.4.05-.66.15l-.14-.35,2.7-1.09h.43ZM65.48,179.73c.27,0,.51.1.7.29s.29.42.29.7-.1.51-.29.7-.42.29-.7.29-.51-.1-.7-.29-.29-.43-.29-.7.1-.51.29-.7.43-.29.71-.29Z"/>
    <path class="cls-4" d="M71.84,179.73v11.87c0,.56.04.93.12,1.11s.21.32.38.42.48.14.95.14v.35h-4.38v-.35c.41,0,.69-.04.84-.13s.27-.22.35-.42.13-.57.13-1.12v-8.12c0-1.01-.02-1.63-.07-1.86s-.12-.39-.22-.47-.23-.13-.39-.13c-.17,0-.38.05-.64.16l-.17-.34,2.67-1.09h.44Z"/>
    <path class="cls-4" d="M75.75,185.78l-.54-2.89c-.14-.79-.21-1.33-.21-1.62,0-.42.09-.72.26-.91s.41-.28.7-.28.52.1.71.29.28.45.28.77c0,.25-.08.84-.25,1.77l-.53,2.88h-.42ZM79.32,185.78l-.53-2.85-.21-1.18c-.01-.16-.02-.33-.02-.49,0-.41.09-.71.27-.9s.42-.28.72-.28c.28,0,.51.09.7.28s.28.44.28.76c0,.55-.06,1.15-.19,1.8l-.56,2.86h-.47Z"/>
  </g>
  <circle class="cls-3" cx="149.03" cy="223.21" r="13.33"/>
  <path class="cls-4" d="M149.03,210.55c7,0,12.67,5.67,12.67,12.67h0c0,7-5.67,12.67-12.67,12.67s-12.67-5.67-12.67-12.67,5.67-12.67,12.67-12.67ZM149.03,209.21c-7.73,0-14,6.27-14,14s6.27,14,14,14,14-6.27,14-14h0c0-7.73-6.27-14-14-14Z"/>
  <circle class="cls-41" cx="186.12" cy="223.21" r="13.33"/>
  <path class="cls-4" d="M186.12,210.55c7,0,12.67,5.67,12.67,12.67h0c0,7-5.67,12.67-12.67,12.67s-12.67-5.67-12.67-12.67,5.67-12.67,12.67-12.67ZM186.12,209.21c-7.73,0-14,6.27-14,14s6.27,14,14,14,14-6.27,14-14h0c0-7.73-6.27-14-14-14Z"/>
  <circle class="cls-7" cx="223.21" cy="223.21" r="13.33"/>
  <path class="cls-4" d="M223.21,210.55c7,0,12.67,5.67,12.67,12.67h0c0,7-5.67,12.67-12.67,12.67s-12.67-5.67-12.67-12.67,5.67-12.67,12.67-12.67ZM223.21,209.21c-7.73,0-14,6.27-14,14s6.27,14,14,14,14-6.27,14-14h0c0-7.73-6.27-14-14-14Z"/>
  <circle class="cls-34" cx="260.3" cy="223.21" r="13.33"/>
  <path class="cls-4" d="M260.3,210.55c7,0,12.67,5.67,12.67,12.67h0c0,7-5.67,12.67-12.67,12.67s-12.67-5.67-12.67-12.67,5.67-12.67,12.67-12.67ZM260.3,209.21c-7.73,0-14,6.27-14,14s6.27,14,14,14,14-6.27,14-14h0c0-7.73-6.27-14-14-14Z"/>
  <circle class="cls-37" cx="297.39" cy="223.21" r="13.33"/>
  <path class="cls-4" d="M297.39,210.55c7,0,12.67,5.67,12.67,12.67h0c0,7-5.67,12.67-12.67,12.67s-12.67-5.67-12.67-12.67,5.67-12.67,12.67-12.67ZM297.39,209.21c-7.73,0-14,6.27-14,14s6.27,14,14,14,14-6.27,14-14h0c0-7.73-6.27-14-14-14Z"/>
  <circle class="cls-39" cx="334.48" cy="223.21" r="13.33"/>
  <path class="cls-4" d="M334.48,210.55c7,0,12.67,5.67,12.67,12.67h0c0,7-5.67,12.67-12.67,12.67s-12.67-5.67-12.67-12.67,5.67-12.67,12.67-12.67ZM334.48,209.21c-7.73,0-14,6.27-14,14s6.27,14,14,14,14-6.27,14-14h0c0-7.73-6.27-14-14-14Z"/>
  <g class="cls-45">
    <path class="cls-4" d="M39.81,222.87l-.54-2.89c-.14-.79-.21-1.33-.21-1.62,0-.42.09-.72.26-.91s.41-.28.7-.28.52.1.71.29.28.45.28.77c0,.25-.08.84-.25,1.77l-.53,2.88h-.42ZM43.38,222.87l-.53-2.85-.21-1.18c-.01-.16-.02-.33-.02-.49,0-.41.09-.71.27-.9s.42-.28.72-.28c.28,0,.51.09.7.28s.28.44.28.76c0,.55-.06,1.15-.19,1.8l-.56,2.86h-.47Z"/>
    <path class="cls-4" d="M49.16,221.5v2.01c.75-1.34,1.52-2.01,2.3-2.01.36,0,.65.11.89.33s.35.47.35.76c0,.25-.08.47-.25.64s-.37.26-.61.26-.48-.11-.77-.34-.49-.34-.63-.34c-.12,0-.24.07-.38.2-.29.27-.6.71-.91,1.32v4.29c0,.5.06.87.19,1.12.08.18.23.32.45.44s.52.18.93.18v.35h-4.58v-.35c.46,0,.79-.07,1.02-.21.16-.1.28-.27.34-.5.03-.11.05-.43.05-.95v-3.47c0-1.04-.02-1.66-.06-1.86s-.12-.34-.23-.43-.26-.14-.42-.14c-.2,0-.43.05-.68.15l-.1-.35,2.71-1.09h.41Z"/>
    <path class="cls-4" d="M54.71,225.14c0,1.33.32,2.37.97,3.12s1.42,1.13,2.29,1.13c.59,0,1.1-.16,1.53-.48s.8-.87,1.09-1.66l.3.2c-.14.89-.53,1.7-1.19,2.44s-1.48,1.1-2.47,1.1c-1.07,0-1.99-.42-2.76-1.25s-1.15-1.96-1.15-3.37c0-1.53.39-2.72,1.18-3.58s1.77-1.28,2.95-1.28c1,0,1.83.33,2.47.99s.97,1.54.97,2.65h-6.18ZM54.71,224.57h4.14c-.03-.57-.1-.98-.21-1.21-.16-.36-.41-.65-.73-.86s-.66-.31-1.01-.31c-.54,0-1.02.21-1.45.63s-.68,1-.75,1.75Z"/>
    <path class="cls-4" d="M63.59,225.14c0,1.33.32,2.37.97,3.12s1.42,1.13,2.29,1.13c.59,0,1.1-.16,1.53-.48s.8-.87,1.09-1.66l.3.2c-.14.89-.53,1.7-1.19,2.44s-1.48,1.1-2.47,1.1c-1.07,0-1.99-.42-2.76-1.25s-1.15-1.96-1.15-3.37c0-1.53.39-2.72,1.18-3.58s1.77-1.28,2.95-1.28c1,0,1.83.33,2.47.99s.97,1.54.97,2.65h-6.18ZM63.59,224.57h4.14c-.03-.57-.1-.98-.21-1.21-.16-.36-.41-.65-.73-.86s-.66-.31-1.01-.31c-.54,0-1.02.21-1.45.63s-.68,1-.75,1.75Z"/>
    <path class="cls-4" d="M74.46,222.47v5.88c0,.83.09,1.36.27,1.58.24.29.56.43.97.43h.81v.35h-5.34v-.35h.4c.26,0,.5-.07.71-.2s.36-.31.44-.53.12-.65.12-1.29v-5.88h-1.74v-.7h1.74v-.59c0-.89.14-1.65.43-2.27s.72-1.12,1.31-1.5,1.25-.57,1.99-.57c.68,0,1.31.22,1.88.66.38.29.57.62.57.99,0,.2-.08.38-.25.55s-.35.26-.55.26c-.15,0-.31-.05-.47-.16s-.37-.34-.61-.69-.46-.59-.66-.72-.43-.19-.67-.19c-.3,0-.55.08-.76.24s-.36.41-.45.74-.14,1.2-.14,2.59v.64h2.3v.7h-2.3Z"/>
    <path class="cls-4" d="M79.05,222.87l-.54-2.89c-.14-.79-.21-1.33-.21-1.62,0-.42.09-.72.26-.91s.41-.28.7-.28.52.1.71.29.28.45.28.77c0,.25-.08.84-.25,1.77l-.53,2.88h-.42ZM82.62,222.87l-.53-2.85-.21-1.18c-.01-.16-.02-.33-.02-.49,0-.41.09-.71.27-.9s.42-.28.72-.28c.28,0,.51.09.7.28s.28.44.28.76c0,.55-.06,1.15-.19,1.8l-.56,2.86h-.47Z"/>
  </g>
  <circle class="cls-25" cx="149.03" cy="260.3" r="13.33"/>
  <path class="cls-4" d="M149.03,247.64c7,0,12.67,5.67,12.67,12.67h0c0,7-5.67,12.67-12.67,12.67s-12.67-5.67-12.67-12.67,5.67-12.67,12.67-12.67ZM149.03,246.3c-7.73,0-14,6.27-14,14s6.27,14,14,14,14-6.27,14-14h0c0-7.73-6.27-14-14-14Z"/>
  <circle class="cls-18" cx="186.12" cy="260.3" r="13.33"/>
  <path class="cls-4" d="M186.12,247.64c7,0,12.67,5.67,12.67,12.67h0c0,7-5.67,12.67-12.67,12.67s-12.67-5.67-12.67-12.67,5.67-12.67,12.67-12.67ZM186.12,246.3c-7.73,0-14,6.27-14,14s6.27,14,14,14,14-6.27,14-14h0c0-7.73-6.27-14-14-14Z"/>
  <circle class="cls-23" cx="223.21" cy="260.3" r="13.33"/>
  <path class="cls-4" d="M223.21,247.64c7,0,12.67,5.67,12.67,12.67h0c0,7-5.67,12.67-12.67,12.67s-12.67-5.67-12.67-12.67,5.67-12.67,12.67-12.67ZM223.21,246.3c-7.73,0-14,6.27-14,14s6.27,14,14,14,14-6.27,14-14h0c0-7.73-6.27-14-14-14Z"/>
  <circle class="cls-28" cx="260.3" cy="260.3" r="13.33"/>
  <path class="cls-4" d="M260.3,247.64c7,0,12.67,5.67,12.67,12.67h0c0,7-5.67,12.67-12.67,12.67s-12.67-5.67-12.67-12.67,5.67-12.67,12.67-12.67ZM260.3,246.3c-7.73,0-14,6.27-14,14s6.27,14,14,14,14-6.27,14-14h0c0-7.73-6.27-14-14-14Z"/>
  <circle class="cls-8" cx="297.39" cy="260.3" r="13.33"/>
  <path class="cls-4" d="M297.39,247.64c7,0,12.67,5.67,12.67,12.67h0c0,7-5.67,12.67-12.67,12.67s-12.67-5.67-12.67-12.67,5.67-12.67,12.67-12.67ZM297.39,246.3c-7.73,0-14,6.27-14,14s6.27,14,14,14,14-6.27,14-14h0c0-7.73-6.27-14-14-14Z"/>
  <circle class="cls-5" cx="334.48" cy="260.3" r="13.33"/>
  <path class="cls-4" d="M334.48,247.64c7,0,12.67,5.67,12.67,12.67h0c0,7-5.67,12.67-12.67,12.67s-12.67-5.67-12.67-12.67,5.67-12.67,12.67-12.67ZM334.48,246.3c-7.73,0-14,6.27-14,14s6.27,14,14,14,14-6.27,14-14h0c0-7.73-6.27-14-14-14Z"/>
  <circle class="cls-43" cx="371.58" cy="260.3" r="13.33"/>
  <path class="cls-4" d="M371.58,247.64c7,0,12.67,5.67,12.67,12.67h0c0,7-5.67,12.67-12.67,12.67s-12.67-5.67-12.67-12.67,5.67-12.67,12.67-12.67ZM371.58,246.3c-7.73,0-14,6.27-14,14s6.27,14,14,14,14-6.27,14-14h0c0-7.73-6.27-14-14-14Z"/>
  <g class="cls-45">
    <path class="cls-4" d="M39.81,259.96l-.54-2.89c-.14-.79-.21-1.33-.21-1.62,0-.42.09-.72.26-.91s.41-.28.7-.28.52.1.71.29.28.45.28.77c0,.25-.08.84-.25,1.77l-.53,2.88h-.42ZM43.38,259.96l-.53-2.85-.21-1.18c-.01-.16-.02-.33-.02-.49,0-.41.09-.71.27-.9s.42-.28.72-.28c.28,0,.51.09.7.28s.28.44.28.76c0,.55-.06,1.15-.19,1.8l-.56,2.86h-.47Z"/>
    <path class="cls-4" d="M49.2,260.5c.65-.65,1.04-1.03,1.15-1.12.29-.25.61-.44.95-.58s.67-.21,1.01-.21c.56,0,1.04.16,1.45.49s.67.8.81,1.42c.67-.78,1.24-1.29,1.7-1.54s.94-.37,1.43-.37.9.12,1.26.37.66.64.87,1.2c.14.38.21.97.21,1.78v3.85c0,.56.04.94.13,1.15.06.14.19.27.36.37s.46.15.86.15v.35h-4.41v-.35h.19c.38,0,.68-.08.9-.22.15-.1.26-.27.32-.5.03-.11.04-.43.04-.95v-3.85c0-.73-.09-1.24-.26-1.54-.25-.42-.66-.62-1.22-.62-.35,0-.69.09-1.04.26s-.77.49-1.26.96l-.02.11.02.42v4.27c0,.61.03.99.1,1.14s.2.28.39.38.51.15.97.15v.35h-4.52v-.35c.49,0,.83-.06,1.02-.18s.31-.29.39-.53c.03-.11.05-.43.05-.97v-3.85c0-.73-.11-1.25-.32-1.57-.29-.42-.69-.62-1.2-.62-.35,0-.7.09-1.04.28-.54.29-.96.61-1.25.97v4.79c0,.59.04.97.12,1.14s.2.31.36.4.48.13.97.13v.35h-4.42v-.35c.41,0,.7-.04.86-.13s.29-.23.37-.42.13-.56.13-1.12v-3.42c0-.98-.03-1.62-.09-1.9-.05-.21-.12-.36-.21-.44s-.23-.12-.4-.12c-.18,0-.4.05-.65.15l-.15-.35,2.7-1.09h.42v1.9Z"/>
    <path class="cls-4" d="M63.61,262.23c0,1.33.32,2.37.97,3.12s1.42,1.13,2.29,1.13c.59,0,1.1-.16,1.53-.48s.8-.87,1.09-1.66l.3.2c-.14.89-.53,1.7-1.19,2.44s-1.48,1.1-2.47,1.1c-1.07,0-1.99-.42-2.76-1.25s-1.15-1.96-1.15-3.37c0-1.53.39-2.72,1.18-3.58s1.77-1.28,2.95-1.28c1,0,1.83.33,2.47.99s.97,1.54.97,2.65h-6.18ZM63.61,261.66h4.14c-.03-.57-.1-.98-.21-1.21-.16-.36-.41-.65-.73-.86s-.66-.31-1.01-.31c-.54,0-1.02.21-1.45.63s-.68,1-.75,1.75Z"/>
    <path class="cls-4" d="M76.05,266.51c-.92.71-1.49,1.12-1.73,1.23-.35.16-.73.24-1.12.24-.62,0-1.13-.21-1.53-.63s-.6-.98-.6-1.67c0-.44.1-.81.29-1.13.27-.44.73-.86,1.39-1.25s1.76-.87,3.3-1.43v-.35c0-.89-.14-1.5-.42-1.84s-.69-.5-1.24-.5c-.41,0-.74.11-.98.33-.25.22-.37.48-.37.76l.02.57c0,.3-.08.53-.23.69s-.35.24-.6.24-.44-.08-.59-.25-.23-.4-.23-.69c0-.56.29-1.07.86-1.54s1.38-.7,2.41-.7c.79,0,1.45.13,1.95.4.38.2.67.52.85.95.12.28.18.85.18,1.72v3.04c0,.85.02,1.38.05,1.57s.09.32.16.39.16.1.26.1c.1,0,.2-.02.27-.07.14-.08.4-.32.79-.71v.55c-.73.98-1.43,1.46-2.09,1.46-.32,0-.57-.11-.76-.33s-.29-.6-.29-1.13ZM76.05,265.88v-3.41c-.98.39-1.62.67-1.9.83-.51.29-.88.59-1.1.9s-.33.65-.33,1.03c0,.47.14.86.42,1.17s.6.46.97.46c.49,0,1.15-.33,1.95-.98Z"/>
    <path class="cls-4" d="M86.18,266.8c-.44.46-.86.78-1.28.98s-.87.3-1.35.3c-.98,0-1.83-.41-2.56-1.23s-1.09-1.87-1.09-3.15.4-2.46,1.21-3.52,1.85-1.6,3.12-1.6c.79,0,1.44.25,1.95.75v-1.65c0-1.02-.02-1.65-.07-1.88s-.13-.39-.23-.48-.23-.13-.39-.13c-.17,0-.39.05-.67.16l-.13-.34,2.67-1.09h.44v10.34c0,1.05.02,1.69.07,1.92s.13.39.23.48.23.14.38.14c.18,0,.41-.06.7-.17l.11.34-2.66,1.1h-.45v-1.28ZM86.18,266.11v-4.61c-.04-.44-.16-.85-.35-1.21s-.45-.64-.78-.83-.64-.28-.94-.28c-.57,0-1.08.26-1.53.77-.59.68-.89,1.67-.89,2.97s.29,2.32.86,3.02,1.21,1.05,1.91,1.05c.59,0,1.17-.3,1.72-.89Z"/>
    <path class="cls-4" d="M94.23,258.59c1.35,0,2.44.51,3.26,1.54.7.88,1.04,1.89,1.04,3.03,0,.8-.19,1.61-.58,2.43s-.91,1.44-1.59,1.86-1.42.62-2.25.62c-1.35,0-2.42-.54-3.21-1.61-.67-.91-1.01-1.92-1.01-3.05,0-.82.2-1.64.61-2.45s.94-1.41,1.61-1.8,1.37-.58,2.11-.58ZM93.93,259.23c-.35,0-.69.1-1.04.31s-.63.56-.84,1.08-.32,1.17-.32,1.98c0,1.3.26,2.42.78,3.37s1.2,1.42,2.05,1.42c.63,0,1.15-.26,1.56-.78s.62-1.42.62-2.69c0-1.59-.34-2.84-1.03-3.75-.46-.62-1.05-.94-1.77-.94Z"/>
    <path class="cls-4" d="M99.36,258.86h3.75v.36c-.35.03-.57.09-.68.19s-.16.24-.16.42c0,.2.06.45.17.73l1.91,5.15,1.92-4.19-.51-1.32c-.16-.39-.36-.66-.62-.81-.14-.09-.41-.15-.8-.17v-.36h4.26v.36c-.47.02-.8.1-1,.25-.13.1-.2.27-.2.5,0,.13.03.26.08.4l2.03,5.14,1.88-4.95c.13-.35.2-.63.2-.84,0-.12-.06-.23-.19-.33s-.38-.15-.75-.17v-.36h2.82v.36c-.57.08-.98.47-1.25,1.15l-2.99,7.71h-.4l-2.24-5.71-2.61,5.71h-.36l-2.87-7.52c-.19-.48-.37-.8-.56-.96s-.47-.29-.86-.38v-.36Z"/>
    <path class="cls-4" d="M115.73,259.96l-.54-2.89c-.14-.79-.21-1.33-.21-1.62,0-.42.09-.72.26-.91s.41-.28.7-.28.52.1.71.29.28.45.28.77c0,.25-.08.84-.25,1.77l-.53,2.88h-.42ZM119.3,259.96l-.53-2.85-.21-1.18c-.01-.16-.02-.33-.02-.49,0-.41.09-.71.27-.9s.42-.28.72-.28c.28,0,.51.09.7.28s.28.44.28.76c0,.55-.06,1.15-.19,1.8l-.56,2.86h-.47Z"/>
  </g>
  <circle class="cls-42" cx="149.03" cy="297.39" r="13.33"/>
  <path class="cls-4" d="M149.03,284.73c7,0,12.67,5.67,12.67,12.67h0c0,7-5.67,12.67-12.67,12.67s-12.67-5.67-12.67-12.67,5.67-12.67,12.67-12.67ZM149.03,283.39c-7.73,0-14,6.27-14,14s6.27,14,14,14,14-6.27,14-14h0c0-7.73-6.27-14-14-14Z"/>
  <circle class="cls-24" cx="186.12" cy="297.39" r="13.33"/>
  <path class="cls-4" d="M186.12,284.73c7,0,12.67,5.67,12.67,12.67h0c0,7-5.67,12.67-12.67,12.67s-12.67-5.67-12.67-12.67,5.67-12.67,12.67-12.67ZM186.12,283.39c-7.73,0-14,6.27-14,14s6.27,14,14,14,14-6.27,14-14h0c0-7.73-6.27-14-14-14Z"/>
  <circle class="cls-26" cx="223.21" cy="297.39" r="13.33"/>
  <path class="cls-4" d="M223.21,284.73c7,0,12.67,5.67,12.67,12.67h0c0,7-5.67,12.67-12.67,12.67s-12.67-5.67-12.67-12.67,5.67-12.67,12.67-12.67ZM223.21,283.39c-7.73,0-14,6.27-14,14s6.27,14,14,14,14-6.27,14-14h0c0-7.73-6.27-14-14-14Z"/>
  <circle class="cls-7" cx="260.3" cy="297.39" r="13.33"/>
  <path class="cls-4" d="M260.3,284.73c7,0,12.67,5.67,12.67,12.67h0c0,7-5.67,12.67-12.67,12.67s-12.67-5.67-12.67-12.67,5.67-12.67,12.67-12.67ZM260.3,283.39c-7.73,0-14,6.27-14,14s6.27,14,14,14,14-6.27,14-14h0c0-7.73-6.27-14-14-14Z"/>
  <circle class="cls-3" cx="297.39" cy="297.39" r="13.33"/>
  <path class="cls-4" d="M297.39,284.73c7,0,12.67,5.67,12.67,12.67h0c0,7-5.67,12.67-12.67,12.67s-12.67-5.67-12.67-12.67,5.67-12.67,12.67-12.67ZM297.39,283.39c-7.73,0-14,6.27-14,14s6.27,14,14,14,14-6.27,14-14h0c0-7.73-6.27-14-14-14Z"/>
  <circle class="cls-14" cx="334.48" cy="297.39" r="13.33"/>
  <path class="cls-4" d="M334.48,284.73c7,0,12.67,5.67,12.67,12.67h0c0,7-5.67,12.67-12.67,12.67s-12.67-5.67-12.67-12.67,5.67-12.67,12.67-12.67ZM334.48,283.39c-7.73,0-14,6.27-14,14s6.27,14,14,14,14-6.27,14-14h0c0-7.73-6.27-14-14-14Z"/>
  <circle class="cls-11" cx="371.58" cy="297.39" r="13.33"/>
  <path class="cls-4" d="M371.58,284.73c7,0,12.67,5.67,12.67,12.67h0c0,7-5.67,12.67-12.67,12.67s-12.67-5.67-12.67-12.67,5.67-12.67,12.67-12.67ZM371.58,283.39c-7.73,0-14,6.27-14,14s6.27,14,14,14,14-6.27,14-14h0c0-7.73-6.27-14-14-14Z"/>
  <g class="cls-45">
    <path class="cls-4" d="M39.81,297.05l-.54-2.89c-.14-.79-.21-1.33-.21-1.62,0-.42.09-.72.26-.91s.41-.28.7-.28.52.1.71.29.28.45.28.77c0,.25-.08.84-.25,1.77l-.53,2.88h-.42ZM43.38,297.05l-.53-2.85-.21-1.18c-.01-.16-.02-.33-.02-.49,0-.41.09-.71.27-.9s.42-.28.72-.28c.28,0,.51.09.7.28s.28.44.28.76c0,.55-.06,1.15-.19,1.8l-.56,2.86h-.47Z"/>
    <path class="cls-4" d="M52.87,303.89c-.44.46-.86.78-1.28.98s-.87.3-1.35.3c-.98,0-1.83-.41-2.56-1.23s-1.09-1.87-1.09-3.15.4-2.46,1.21-3.52,1.85-1.6,3.12-1.6c.79,0,1.44.25,1.95.75v-1.65c0-1.02-.02-1.65-.07-1.88s-.13-.39-.23-.48-.23-.13-.39-.13c-.17,0-.39.05-.67.16l-.13-.34,2.67-1.09h.44v10.34c0,1.05.02,1.69.07,1.92s.13.39.23.48.23.14.38.14c.18,0,.41-.06.7-.17l.11.34-2.66,1.1h-.45v-1.28ZM52.87,303.2v-4.61c-.04-.44-.16-.85-.35-1.21s-.45-.64-.78-.83-.64-.28-.94-.28c-.57,0-1.08.26-1.53.77-.59.68-.89,1.67-.89,2.97s.29,2.32.86,3.02,1.21,1.05,1.91,1.05c.59,0,1.17-.3,1.72-.89Z"/>
    <path class="cls-4" d="M56.04,295.95h4.17v.36h-.21c-.29,0-.51.06-.66.19s-.22.29-.22.47c0,.25.11.61.32,1.05l2.18,4.51,2-4.94c.11-.27.17-.53.17-.79,0-.12-.02-.21-.07-.26-.05-.07-.13-.13-.24-.17s-.31-.06-.59-.06v-.36h2.91v.36c-.24.03-.43.08-.56.16s-.27.22-.43.44c-.06.09-.17.34-.33.75l-3.64,8.93c-.35.87-.81,1.52-1.38,1.96s-1.12.66-1.65.66c-.38,0-.7-.11-.95-.33s-.37-.48-.37-.76.09-.49.27-.66.42-.25.74-.25c.21,0,.51.07.88.21.26.1.42.15.49.15.2,0,.41-.1.64-.3s.46-.59.7-1.17l.63-1.55-3.21-6.75c-.1-.2-.25-.45-.47-.75-.16-.23-.3-.38-.4-.46-.15-.1-.39-.2-.72-.27v-.36Z"/>
    <path class="cls-4" d="M68.05,299.32c0,1.33.32,2.37.97,3.12s1.42,1.13,2.29,1.13c.59,0,1.1-.16,1.53-.48s.8-.87,1.09-1.66l.3.2c-.14.89-.53,1.7-1.19,2.44s-1.48,1.1-2.47,1.1c-1.07,0-1.99-.42-2.76-1.25s-1.15-1.96-1.15-3.37c0-1.53.39-2.72,1.18-3.58s1.77-1.28,2.95-1.28c1,0,1.83.33,2.47.99s.97,1.54.97,2.65h-6.18ZM68.05,298.75h4.14c-.03-.57-.1-.98-.21-1.21-.16-.36-.41-.65-.73-.86s-.66-.31-1.01-.31c-.54,0-1.02.21-1.45.63s-.68,1-.75,1.75Z"/>
    <path class="cls-4" d="M76.85,297.05l-.54-2.89c-.14-.79-.21-1.33-.21-1.62,0-.42.09-.72.26-.91s.41-.28.7-.28.52.1.71.29.28.45.28.77c0,.25-.08.84-.25,1.77l-.53,2.88h-.42ZM80.42,297.05l-.53-2.85-.21-1.18c-.01-.16-.02-.33-.02-.49,0-.41.09-.71.27-.9s.42-.28.72-.28c.28,0,.51.09.7.28s.28.44.28.76c0,.55-.06,1.15-.19,1.8l-.56,2.86h-.47Z"/>
  </g>
  <circle class="cls-22" cx="149.03" cy="334.48" r="13.33"/>
  <path class="cls-4" d="M149.03,321.82c7,0,12.67,5.67,12.67,12.67h0c0,7-5.67,12.67-12.67,12.67s-12.67-5.67-12.67-12.67,5.67-12.67,12.67-12.67ZM149.03,320.48c-7.73,0-14,6.27-14,14s6.27,14,14,14,14-6.27,14-14h0c0-7.73-6.27-14-14-14Z"/>
  <circle class="cls-42" cx="186.12" cy="334.48" r="13.33"/>
  <path class="cls-4" d="M186.12,321.82c7,0,12.67,5.67,12.67,12.67h0c0,7-5.67,12.67-12.67,12.67s-12.67-5.67-12.67-12.67,5.67-12.67,12.67-12.67ZM186.12,320.48c-7.73,0-14,6.27-14,14s6.27,14,14,14,14-6.27,14-14h0c0-7.73-6.27-14-14-14Z"/>
  <circle class="cls-44" cx="223.21" cy="334.48" r="13.33"/>
  <path class="cls-4" d="M223.21,321.82c7,0,12.67,5.67,12.67,12.67h0c0,7-5.67,12.67-12.67,12.67s-12.67-5.67-12.67-12.67,5.67-12.67,12.67-12.67ZM223.21,320.48c-7.73,0-14,6.27-14,14s6.27,14,14,14,14-6.27,14-14h0c0-7.73-6.27-14-14-14Z"/>
  <circle class="cls-25" cx="260.3" cy="334.48" r="13.33"/>
  <path class="cls-4" d="M260.3,321.82c7,0,12.67,5.67,12.67,12.67h0c0,7-5.67,12.67-12.67,12.67s-12.67-5.67-12.67-12.67,5.67-12.67,12.67-12.67ZM260.3,320.48c-7.73,0-14,6.27-14,14s6.27,14,14,14,14-6.27,14-14h0c0-7.73-6.27-14-14-14Z"/>
  <circle class="cls-40" cx="297.39" cy="334.48" r="13.33"/>
  <path class="cls-4" d="M297.39,321.82c7,0,12.67,5.67,12.67,12.67h0c0,7-5.67,12.67-12.67,12.67s-12.67-5.67-12.67-12.67,5.67-12.67,12.67-12.67ZM297.39,320.48c-7.73,0-14,6.27-14,14s6.27,14,14,14,14-6.27,14-14h0c0-7.73-6.27-14-14-14Z"/>
  <circle class="cls-30" cx="334.48" cy="334.48" r="13.33"/>
  <path class="cls-4" d="M334.48,321.82c7,0,12.67,5.67,12.67,12.67h0c0,7-5.67,12.67-12.67,12.67s-12.67-5.67-12.67-12.67,5.67-12.67,12.67-12.67ZM334.48,320.48c-7.73,0-14,6.27-14,14s6.27,14,14,14,14-6.27,14-14h0c0-7.73-6.27-14-14-14Z"/>
  <circle class="cls-27" cx="371.58" cy="334.48" r="13.33"/>
  <path class="cls-4" d="M371.58,321.82c7,0,12.67,5.67,12.67,12.67h0c0,7-5.67,12.67-12.67,12.67s-12.67-5.67-12.67-12.67,5.67-12.67,12.67-12.67ZM371.58,320.48c-7.73,0-14,6.27-14,14s6.27,14,14,14,14-6.27,14-14h0c0-7.73-6.27-14-14-14Z"/>
  <g class="cls-45">
    <path class="cls-4" d="M39.81,334.14l-.54-2.89c-.14-.79-.21-1.33-.21-1.62,0-.42.09-.72.26-.91s.41-.28.7-.28.52.1.71.29.28.45.28.77c0,.25-.08.84-.25,1.77l-.53,2.88h-.42ZM43.38,334.14l-.53-2.85-.21-1.18c-.01-.16-.02-.33-.02-.49,0-.41.09-.71.27-.9s.42-.28.72-.28c.28,0,.51.09.7.28s.28.44.28.76c0,.55-.06,1.15-.19,1.8l-.56,2.86h-.47Z"/>
    <path class="cls-4" d="M48.05,336.41c0,1.33.32,2.37.97,3.12s1.42,1.13,2.29,1.13c.59,0,1.1-.16,1.53-.48s.8-.87,1.09-1.66l.3.2c-.14.89-.53,1.7-1.19,2.44s-1.48,1.1-2.47,1.1c-1.07,0-1.99-.42-2.76-1.25s-1.15-1.96-1.15-3.37c0-1.53.39-2.72,1.18-3.58s1.77-1.28,2.95-1.28c1,0,1.83.33,2.47.99s.97,1.54.97,2.65h-6.18ZM48.05,335.84h4.14c-.03-.57-.1-.98-.21-1.21-.16-.36-.41-.65-.73-.86s-.66-.31-1.01-.31c-.54,0-1.02.21-1.45.63s-.68,1-.75,1.75Z"/>
    <path class="cls-4" d="M60.49,340.7c-.92.71-1.49,1.12-1.73,1.23-.35.16-.73.24-1.12.24-.62,0-1.13-.21-1.53-.63s-.6-.98-.6-1.67c0-.44.1-.81.29-1.13.27-.44.73-.86,1.39-1.25s1.76-.87,3.3-1.43v-.35c0-.89-.14-1.5-.42-1.84s-.69-.5-1.24-.5c-.41,0-.74.11-.98.33-.25.22-.37.48-.37.76l.02.57c0,.3-.08.53-.23.69s-.35.24-.6.24-.44-.08-.59-.25-.23-.4-.23-.69c0-.56.29-1.07.86-1.54s1.38-.7,2.41-.7c.79,0,1.45.13,1.95.4.38.2.67.52.85.95.12.28.18.85.18,1.72v3.04c0,.85.02,1.38.05,1.57s.09.32.16.39.16.1.26.1c.1,0,.2-.02.27-.07.14-.08.4-.32.79-.71v.55c-.73.98-1.43,1.46-2.09,1.46-.32,0-.57-.11-.76-.33s-.29-.6-.29-1.13ZM60.49,340.06v-3.41c-.98.39-1.62.67-1.9.83-.51.29-.88.59-1.1.9s-.33.65-.33,1.03c0,.47.14.86.42,1.17s.6.46.97.46c.49,0,1.15-.33,1.95-.98Z"/>
    <path class="cls-4" d="M66.92,332.78v2.01c.75-1.34,1.52-2.01,2.3-2.01.36,0,.65.11.89.33s.35.47.35.76c0,.25-.08.47-.25.64s-.37.26-.61.26-.48-.11-.77-.34-.49-.34-.63-.34c-.12,0-.24.07-.38.2-.29.27-.6.71-.91,1.32v4.29c0,.5.06.87.19,1.12.08.18.23.32.45.44s.52.18.93.18v.35h-4.58v-.35c.46,0,.79-.07,1.02-.21.16-.1.28-.27.34-.5.03-.11.05-.43.05-.95v-3.47c0-1.04-.02-1.66-.06-1.86s-.12-.34-.23-.43-.26-.14-.42-.14c-.2,0-.43.05-.68.15l-.1-.35,2.71-1.09h.41Z"/>
    <path class="cls-4" d="M73.56,330.1v2.94h2.09v.68h-2.09v5.8c0,.58.08.97.25,1.17s.38.3.64.3c.21,0,.42-.07.62-.2s.36-.33.47-.59h.38c-.23.64-.55,1.12-.97,1.44s-.85.48-1.29.48c-.3,0-.59-.08-.88-.25s-.5-.4-.63-.71-.21-.79-.21-1.43v-6.02h-1.42v-.32c.36-.14.72-.39,1.1-.73s.71-.75,1-1.22c.15-.25.36-.7.62-1.36h.3Z"/>
    <path class="cls-4" d="M79.14,328.1v6.54c.72-.79,1.3-1.3,1.72-1.53s.85-.34,1.27-.34c.51,0,.94.14,1.31.42s.63.72.81,1.32c.12.42.19,1.18.19,2.29v3.16c0,.57.05.95.14,1.16.06.16.18.28.33.37s.44.14.86.14v.35h-4.39v-.35h.21c.42,0,.71-.06.87-.19s.28-.31.34-.56c.02-.1.03-.41.03-.92v-3.16c0-.98-.05-1.62-.15-1.92s-.26-.54-.48-.69-.49-.23-.8-.23-.65.08-1,.25-.76.51-1.24,1.03v4.73c0,.61.03.99.1,1.14s.2.28.38.38.51.15.96.15v.35h-4.43v-.35c.4,0,.71-.06.94-.19.13-.07.23-.19.31-.37s.12-.55.12-1.11v-8.1c0-1.02-.02-1.65-.07-1.88s-.12-.39-.22-.48-.24-.13-.41-.13c-.14,0-.36.05-.66.16l-.14-.34,2.68-1.09h.45Z"/>
    <path class="cls-4" d="M87.94,334.14l-.54-2.89c-.14-.79-.21-1.33-.21-1.62,0-.42.09-.72.26-.91s.41-.28.7-.28.52.1.71.29.28.45.28.77c0,.25-.08.84-.25,1.77l-.53,2.88h-.42ZM91.52,334.14l-.53-2.85-.21-1.18c-.01-.16-.02-.33-.02-.49,0-.41.09-.71.27-.9s.42-.28.72-.28c.28,0,.51.09.7.28s.28.44.28.76c0,.55-.06,1.15-.19,1.8l-.56,2.86h-.47Z"/>
  </g>
  <circle class="cls-33" cx="149.03" cy="371.58" r="13.33"/>
  <path class="cls-4" d="M149.03,358.91c7,0,12.67,5.67,12.67,12.67h0c0,7-5.67,12.67-12.67,12.67s-12.67-5.67-12.67-12.67,5.67-12.67,12.67-12.67ZM149.03,357.58c-7.73,0-14,6.27-14,14s6.27,14,14,14,14-6.27,14-14h0c0-7.73-6.27-14-14-14Z"/>
  <circle class="cls-20" cx="186.12" cy="371.58" r="13.33"/>
  <path class="cls-4" d="M186.12,358.91c7,0,12.67,5.67,12.67,12.67h0c0,7-5.67,12.67-12.67,12.67s-12.67-5.67-12.67-12.67,5.67-12.67,12.67-12.67ZM186.12,357.58c-7.73,0-14,6.27-14,14s6.27,14,14,14,14-6.27,14-14h0c0-7.73-6.27-14-14-14Z"/>
  <circle class="cls-38" cx="223.21" cy="371.58" r="13.33"/>
  <path class="cls-4" d="M223.21,358.91c7,0,12.67,5.67,12.67,12.67h0c0,7-5.67,12.67-12.67,12.67s-12.67-5.67-12.67-12.67,5.67-12.67,12.67-12.67ZM223.21,357.58c-7.73,0-14,6.27-14,14s6.27,14,14,14,14-6.27,14-14h0c0-7.73-6.27-14-14-14Z"/>
  <circle class="cls-31" cx="260.3" cy="371.58" r="13.33"/>
  <path class="cls-4" d="M260.3,358.91c7,0,12.67,5.67,12.67,12.67h0c0,7-5.67,12.67-12.67,12.67s-12.67-5.67-12.67-12.67,5.67-12.67,12.67-12.67ZM260.3,357.58c-7.73,0-14,6.27-14,14s6.27,14,14,14,14-6.27,14-14h0c0-7.73-6.27-14-14-14Z"/>
  <circle class="cls-1" cx="297.39" cy="371.58" r="13.33"/>
  <path class="cls-4" d="M297.39,358.91c7,0,12.67,5.67,12.67,12.67h0c0,7-5.67,12.67-12.67,12.67s-12.67-5.67-12.67-12.67,5.67-12.67,12.67-12.67ZM297.39,357.58c-7.73,0-14,6.27-14,14s6.27,14,14,14,14-6.27,14-14h0c0-7.73-6.27-14-14-14Z"/>
  <circle class="cls-9" cx="334.48" cy="371.58" r="13.33"/>
  <path class="cls-4" d="M334.48,358.91c7,0,12.67,5.67,12.67,12.67h0c0,7-5.67,12.67-12.67,12.67s-12.67-5.67-12.67-12.67,5.67-12.67,12.67-12.67ZM334.48,357.58c-7.73,0-14,6.27-14,14s6.27,14,14,14,14-6.27,14-14h0c0-7.73-6.27-14-14-14Z"/>
  <circle class="cls-12" cx="371.58" cy="371.58" r="13.33"/>
  <path class="cls-4" d="M371.58,358.91c7,0,12.67,5.67,12.67,12.67h0c0,7-5.67,12.67-12.67,12.67s-12.67-5.67-12.67-12.67,5.67-12.67,12.67-12.67ZM371.58,357.58c-7.73,0-14,6.27-14,14s6.27,14,14,14,14-6.27,14-14h0c0-7.73-6.27-14-14-14Z"/>
  <g class="cls-45">
    <path class="cls-4" d="M39.81,371.23l-.54-2.89c-.14-.79-.21-1.33-.21-1.62,0-.42.09-.72.26-.91s.41-.28.7-.28.52.1.71.29.28.45.28.77c0,.25-.08.84-.25,1.77l-.53,2.88h-.42ZM43.38,371.23l-.53-2.85-.21-1.18c-.01-.16-.02-.33-.02-.49,0-.41.09-.71.27-.9s.42-.28.72-.28c.28,0,.51.09.7.28s.28.44.28.76c0,.55-.06,1.15-.19,1.8l-.56,2.86h-.47Z"/>
    <path class="cls-4" d="M52.87,378.07c-.44.46-.86.78-1.28.98s-.87.3-1.35.3c-.98,0-1.83-.41-2.56-1.23s-1.09-1.87-1.09-3.15.4-2.46,1.21-3.52,1.85-1.6,3.12-1.6c.79,0,1.44.25,1.95.75v-1.65c0-1.02-.02-1.65-.07-1.88s-.13-.39-.23-.48-.23-.13-.39-.13c-.17,0-.39.05-.67.16l-.13-.34,2.67-1.09h.44v10.34c0,1.05.02,1.69.07,1.92s.13.39.23.48.23.14.38.14c.18,0,.41-.06.7-.17l.11.34-2.66,1.1h-.45v-1.28ZM52.87,377.39v-4.61c-.04-.44-.16-.85-.35-1.21s-.45-.64-.78-.83-.64-.28-.94-.28c-.57,0-1.08.26-1.53.77-.59.68-.89,1.67-.89,2.97s.29,2.32.86,3.02,1.21,1.05,1.91,1.05c.59,0,1.17-.3,1.72-.89Z"/>
    <path class="cls-4" d="M58.05,373.5c0,1.33.32,2.37.97,3.12s1.42,1.13,2.29,1.13c.59,0,1.1-.16,1.53-.48s.8-.87,1.09-1.66l.3.2c-.14.89-.53,1.7-1.19,2.44s-1.48,1.1-2.47,1.1c-1.07,0-1.99-.42-2.76-1.25s-1.15-1.96-1.15-3.37c0-1.53.39-2.72,1.18-3.58s1.77-1.28,2.95-1.28c1,0,1.83.33,2.47.99s.97,1.54.97,2.65h-6.18ZM58.05,372.93h4.14c-.03-.57-.1-.98-.21-1.21-.16-.36-.41-.65-.73-.86s-.66-.31-1.01-.31c-.54,0-1.02.21-1.45.63s-.68,1-.75,1.75Z"/>
    <path class="cls-4" d="M68.92,370.83v5.88c0,.83.09,1.36.27,1.58.24.29.56.43.97.43h.81v.35h-5.34v-.35h.4c.26,0,.5-.07.71-.2s.36-.31.44-.53.12-.65.12-1.29v-5.88h-1.74v-.7h1.74v-.59c0-.89.14-1.65.43-2.27s.72-1.12,1.31-1.5,1.25-.57,1.99-.57c.68,0,1.31.22,1.88.66.38.29.57.62.57.99,0,.2-.08.38-.25.55s-.35.26-.55.26c-.15,0-.31-.05-.47-.16s-.37-.34-.61-.69-.46-.59-.66-.72-.43-.19-.67-.19c-.3,0-.55.08-.76.24s-.36.41-.45.74-.14,1.2-.14,2.59v.64h2.3v.7h-2.3Z"/>
    <path class="cls-4" d="M77.15,377.79c-.92.71-1.49,1.12-1.73,1.23-.35.16-.73.24-1.12.24-.62,0-1.13-.21-1.53-.63s-.6-.98-.6-1.67c0-.44.1-.81.29-1.13.27-.44.73-.86,1.39-1.25s1.76-.87,3.3-1.43v-.35c0-.89-.14-1.5-.42-1.84s-.69-.5-1.24-.5c-.41,0-.74.11-.98.33-.25.22-.37.48-.37.76l.02.57c0,.3-.08.53-.23.69s-.35.24-.6.24-.44-.08-.59-.25-.23-.4-.23-.69c0-.56.29-1.07.86-1.54s1.38-.7,2.41-.7c.79,0,1.45.13,1.95.4.38.2.67.52.85.95.12.28.18.85.18,1.72v3.04c0,.85.02,1.38.05,1.57s.09.32.16.39.16.1.26.1c.1,0,.2-.02.27-.07.14-.08.4-.32.79-.71v.55c-.73.98-1.43,1.46-2.09,1.46-.32,0-.57-.11-.76-.33s-.29-.6-.29-1.13ZM77.15,377.15v-3.41c-.98.39-1.62.67-1.9.83-.51.29-.88.59-1.1.9s-.33.65-.33,1.03c0,.47.14.86.42,1.17s.6.46.97.46c.49,0,1.15-.33,1.95-.98Z"/>
    <path class="cls-4" d="M88.8,370.13v5.42c0,1.04.02,1.67.07,1.9s.13.39.23.48.23.14.38.14c.2,0,.43-.06.68-.17l.14.34-2.68,1.1h-.44v-1.89c-.77.83-1.35,1.36-1.76,1.57s-.83.32-1.28.32c-.5,0-.94-.14-1.3-.43s-.62-.66-.77-1.12-.21-1.1-.21-1.93v-3.99c0-.42-.05-.72-.14-.88s-.23-.29-.41-.38-.5-.13-.97-.12v-.36h3.13v5.99c0,.83.15,1.38.43,1.64s.64.39,1.05.39c.28,0,.6-.09.95-.26s.78-.51,1.26-1.01v-5.07c0-.51-.09-.85-.28-1.03s-.57-.28-1.16-.29v-.36h3.05Z"/>
    <path class="cls-4" d="M94.04,365.19v11.87c0,.56.04.93.12,1.11s.21.32.38.42.48.14.95.14v.35h-4.38v-.35c.41,0,.69-.04.84-.13s.27-.22.35-.42.13-.57.13-1.12v-8.12c0-1.01-.02-1.63-.07-1.86s-.12-.39-.22-.47-.23-.13-.39-.13c-.17,0-.38.05-.64.16l-.17-.34,2.67-1.09h.44Z"/>
    <path class="cls-4" d="M99.12,367.19v2.94h2.09v.68h-2.09v5.8c0,.58.08.97.25,1.17s.38.3.64.3c.21,0,.42-.07.62-.2s.36-.33.47-.59h.38c-.23.64-.55,1.12-.97,1.44s-.85.48-1.29.48c-.3,0-.59-.08-.88-.25s-.5-.4-.63-.71-.21-.79-.21-1.43v-6.02h-1.42v-.32c.36-.14.72-.39,1.1-.73s.71-.75,1-1.22c.15-.25.36-.7.62-1.36h.3Z"/>
    <path class="cls-4" d="M103.5,371.23l-.54-2.89c-.14-.79-.21-1.33-.21-1.62,0-.42.09-.72.26-.91s.41-.28.7-.28.52.1.71.29.28.45.28.77c0,.25-.08.84-.25,1.77l-.53,2.88h-.42ZM107.07,371.23l-.53-2.85-.21-1.18c-.01-.16-.02-.33-.02-.49,0-.41.09-.71.27-.9s.42-.28.72-.28c.28,0,.51.09.7.28s.28.44.28.76c0,.55-.06,1.15-.19,1.8l-.56,2.86h-.47Z"/>
  </g>
</svg>